<svg width="142" height="146" viewBox="0 0 142 146" fill="none" xmlns="http://www.w3.org/2000/svg">
<g clip-path="url(#clip0_1_947)">
<path d="M66.98 136.955C63.5174 129.677 54.0853 126.312 44.0854 122.746C14.6086 112.189 10.4708 99.2833 11.9563 72.494C12.9396 54.7119 14.058 34.5558 4.3386 27.3057L0 24.0653L26.1736 0H115.826L142 24.0653L137.679 27.2814C132.426 31.1907 129.812 39.0472 129.452 51.9844C129.258 59.0508 129.663 65.6321 130.026 71.4405C131.439 94.2893 132.45 110.8 96.9589 123.314C87.146 126.78 77.8801 130.041 75.1135 136.729L71.2805 145.986L66.98 136.955Z" fill="white"/>
<path d="M114.542 3.29581L135.805 22.8454L136.844 23.7985L135.733 24.6371C128.589 29.943 126.488 40.2013 126.162 51.9082C125.217 86.1174 137.883 105.411 95.8647 120.223C85.4008 123.91 75.4009 127.435 72.0734 135.471L71.0727 137.897L69.9439 135.537C65.9066 127.046 55.6539 123.376 45.1831 119.627C16.8177 109.465 13.8503 97.8451 15.2353 72.6534C16.2983 53.4435 17.4341 32.9443 6.27765 24.6371L5.15924 23.7985L6.19801 22.8454L27.4582 3.29581H114.542Z" fill="white"/>
<path d="M114.542 3.29581L135.805 22.8454L136.844 23.7985L135.733 24.6371C128.589 29.943 126.488 40.2013 126.162 51.9082C125.217 86.1174 137.883 105.411 95.8647 120.223C85.4008 123.91 75.4009 127.435 72.0734 135.471L71.0727 137.897L69.9439 135.537C65.9066 127.046 55.6539 123.376 45.1831 119.627C16.8177 109.465 13.8503 97.8451 15.2353 72.6534C16.3053 53.44 17.441 32.9443 6.28458 24.6371L5.15924 23.7985L6.19801 22.8454L27.4582 3.29581H114.542ZM28.6701 5.31973L8.75685 23.6425C19.754 33.1314 18.6217 53.5786 17.5587 72.7782C16.2222 96.9371 18.5975 107.629 45.9518 117.426C56.0936 121.047 65.9966 124.6 70.9481 132.526C75.3351 124.991 85.0096 121.581 95.103 118.025C135.522 103.778 122.921 85.1644 123.842 51.8319C124.168 40.08 126.266 29.6519 133.243 23.6321L113.316 5.31973C85.0442 5.62124 56.9558 5.62124 28.6839 5.31973H28.6701Z" fill="#134094"/>
<path d="M113.015 43.2129L112.409 42.0935C112.887 41.9549 113.268 42.0727 113.413 42.3569C113.558 42.6411 113.413 42.9183 113.015 43.2129ZM111.889 44.5125C111.726 44.4962 111.57 44.4391 111.434 44.3465C111.299 44.2538 111.188 44.1286 111.114 43.9823C110.823 43.407 111.131 42.6758 111.893 42.2841C112.012 42.2217 112.137 42.1718 112.267 42.1351C112.534 42.6584 112.811 43.2441 113.112 43.9026C113.248 43.8415 113.369 43.753 113.469 43.6426C113.569 43.5322 113.645 43.4023 113.693 43.2611C113.74 43.1199 113.758 42.9703 113.745 42.8219C113.732 42.6735 113.689 42.5293 113.617 42.3985C113.271 41.6811 112.284 41.4593 111.401 41.9133C110.518 42.3673 110.221 43.2129 110.56 43.8887C110.688 44.1175 110.876 44.3074 111.104 44.4385C111.331 44.5696 111.589 44.6371 111.851 44.6338L111.889 44.5125ZM108.946 39.983C109.081 40.1978 109.213 40.4231 109.351 40.6588C109.49 40.8944 109.639 41.1405 109.781 41.3935L109.885 41.3311C109.601 40.7523 109.673 40.638 110.172 40.333L110.91 39.8825C111.502 39.5359 111.921 39.5359 112.059 39.7785C112.123 39.94 112.13 40.1189 112.076 40.2845C112.162 40.3418 112.262 40.3764 112.365 40.3849C112.467 40.3934 112.571 40.3755 112.665 40.333C112.701 40.31 112.731 40.2801 112.754 40.2449C112.778 40.2097 112.794 40.1701 112.801 40.1285C112.809 40.0869 112.807 40.0442 112.798 40.0031C112.788 39.9619 112.77 39.9232 112.745 39.8894C112.572 39.5948 112.146 39.4458 111.522 39.4908L112.26 39.0542V38.9987L111.495 38.5205L111.429 38.562L111.412 38.7319C111.391 38.9502 111.259 39.0784 111.003 39.224L109.885 39.9171C109.455 40.177 109.296 40.2637 109.047 39.9171L108.946 39.983ZM107.949 36.2297C107.354 36.6767 107.194 37.0857 107.478 37.4808C107.77 37.8309 108.174 38.0695 108.621 38.1566L108.167 38.5031C108.444 38.7145 108.739 38.9675 109.061 39.2309L109.147 39.1269C109.065 39.0603 108.991 38.9848 108.926 38.9017C108.804 38.7353 108.874 38.6452 109.168 38.4269L109.303 38.3264L110.498 37.4704C110.584 37.408 110.844 37.2312 111.252 36.9471C111 36.6664 110.733 36.3544 110.435 36.0148L110.331 36.0911L110.352 36.1188C110.671 36.5693 110.591 36.7391 110.11 37.0961L110.051 37.1377L108.77 38.0665C108.633 38.0486 108.502 38.0039 108.383 37.9349C108.264 37.8659 108.16 37.774 108.077 37.6645C107.793 37.2694 107.928 36.9367 108.441 36.5416L109.424 35.7861C109.511 35.7237 109.732 35.5608 110.089 35.3148L109.396 34.5385L109.293 34.6147L109.31 34.6424C109.594 35.0375 109.448 35.1311 108.912 35.5331L107.949 36.2297ZM106.218 34.3409L106.194 34.3617C105.809 34.6771 105.764 34.9301 106.059 35.3009C106.288 35.5674 106.565 35.7884 106.876 35.9524L106.955 35.8519C106.852 35.7691 106.758 35.6749 106.675 35.5712C106.597 35.4948 106.54 35.4003 106.508 35.2963C106.476 35.1923 106.47 35.0819 106.491 34.9751C106.554 34.7637 106.817 34.5489 107.212 34.2231L108.23 33.3948L108.891 34.2231L109.182 33.984L108.51 33.1487L109.071 32.7294L109.054 32.6705L107.634 32.5769V32.6358L107.908 32.9824L106.218 34.3409ZM103.96 30.9342C103.444 31.4679 103.347 31.8976 103.69 32.2442C104.033 32.5437 104.468 32.7152 104.923 32.7294L104.525 33.1314C104.833 33.3012 105.165 33.5022 105.522 33.7102L105.591 33.5958C105.499 33.543 105.413 33.4803 105.335 33.4087C105.189 33.2631 105.245 33.1626 105.505 32.8992L105.619 32.7814L106.658 31.7417C106.734 31.6654 106.955 31.4506 107.326 31.104C107.031 30.8684 106.716 30.6015 106.374 30.3139L106.28 30.4074L106.304 30.4282C106.692 30.8233 106.651 31.0035 106.218 31.4298L106.169 31.4818L105.044 32.6046C104.905 32.6105 104.766 32.5884 104.636 32.5395C104.506 32.4907 104.387 32.4162 104.286 32.3205C103.939 31.9739 104.026 31.6273 104.473 31.1525L105.324 30.2515C105.401 30.1718 105.595 29.9777 105.906 29.6762L105.106 29.0212L105.016 29.1147L105.041 29.1355C105.387 29.4821 105.248 29.5965 104.784 30.0782L103.96 30.9342ZM100.11 28.5083C100.401 28.7543 100.695 29.0038 100.993 29.2672C101.291 29.5306 101.595 29.8079 101.907 30.0921L101.987 29.9985C101.394 29.3643 101.46 29.1113 101.987 28.4909L102.679 27.673L103.25 28.179C103.718 28.5914 103.78 28.9241 103.413 29.3539L103.486 29.4163C103.614 29.2568 103.742 29.1113 103.867 28.9623C104.14 28.6434 104.417 28.3419 104.701 28.0404L104.625 27.9711C104.255 28.3592 103.901 28.3177 103.444 27.926L102.887 27.4339L104.317 25.7635L104.798 26.1898C105.449 26.7616 105.608 27.1151 105.089 27.7562L105.162 27.8221L106.003 26.9903C105.608 26.6553 105.147 26.2568 104.618 25.7947C104.244 25.4481 103.842 25.1015 103.399 24.7099L103.313 24.807C103.801 25.3337 103.659 25.5694 103.164 26.169L101.495 28.1166C100.979 28.7127 100.771 28.8652 100.172 28.4147L100.11 28.5083ZM97.544 25.4204L97.5267 25.4446C97.2428 25.8571 97.267 26.117 97.6514 26.3873C97.9447 26.5789 98.2712 26.714 98.614 26.7858L98.6625 26.668C98.5413 26.6155 98.4254 26.5517 98.3162 26.4774C98.2201 26.4252 98.1383 26.3502 98.0779 26.2589C98.0176 26.1677 97.9805 26.063 97.9699 25.9541C97.9699 25.7323 98.1673 25.4516 98.4582 25.0288L99.213 23.951L100.068 24.5678L100.283 24.2594L99.4138 23.6391L99.8397 23.0811L99.8017 23.0291L98.4166 23.3445V23.4034L98.7629 23.6564L97.544 25.4204ZM93.5552 23.4796C93.7629 23.6009 93.9707 23.7326 94.1784 23.8643C94.3862 23.996 94.6043 24.1346 94.819 24.2767L94.8848 24.1728C94.5385 23.9198 94.5559 23.7326 94.8536 23.2474L95.8266 21.6671C96.0676 21.6464 96.3091 21.6996 96.5191 21.8196C96.9935 22.1211 96.9866 22.5647 96.5815 23.2474L96.1521 23.9718C96.1036 24.0445 96.069 24.1138 96.0344 24.1728C95.8058 24.5401 95.6881 24.6164 95.2899 24.4292L95.2276 24.5332C95.4527 24.6683 95.6708 24.807 95.8786 24.9387C96.0863 25.0704 96.301 25.2055 96.4949 25.3337L96.5572 25.2298C96.211 24.9456 96.2629 24.8208 96.5087 24.4015L97.2013 23.2301C97.6202 22.5093 97.6202 22.0449 97.0939 21.7122C96.718 21.5369 96.2978 21.4801 95.8889 21.5493L97.2013 19.4942L97.1666 19.4283L96.3045 19.3105L96.2698 19.3659L96.3287 19.5912C96.3444 19.6884 96.3392 19.7878 96.3136 19.8828C96.2879 19.9778 96.2423 20.0662 96.1798 20.1422L94.4485 22.984C94.1542 23.4588 94.0434 23.6044 93.6383 23.3722L93.5552 23.4796ZM91.308 22.5266L91.8066 22.738L92.0247 22.8489C92.4991 23.0811 92.648 23.3722 92.4541 23.7742C92.2602 24.1762 91.6196 24.3599 90.9479 24.0307C90.3765 23.7465 90.1619 23.2544 90.3177 22.9251C90.4227 22.7659 90.5738 22.6424 90.7507 22.5712C90.9276 22.5 91.122 22.4844 91.308 22.5266ZM92.0316 20.0695C92.3017 19.508 92.6376 19.3001 92.9769 19.4699C93.3163 19.6397 93.4028 20.163 93.1154 20.766C92.828 21.3691 92.4852 21.5389 92.1667 21.3795C91.8481 21.22 91.7339 20.669 92.0316 20.0556V20.0695ZM91.5677 21.1334L91.1868 21.2547C90.9375 21.3309 90.7505 21.3864 90.6778 21.5423C90.5704 21.7641 90.6778 22.0449 91.0033 22.3845C90.335 22.433 89.9333 22.5994 89.7637 22.9459C89.5663 23.3549 89.7914 23.8712 90.4112 24.1762C90.8726 24.4035 91.3968 24.4694 91.9001 24.3634C92.1173 24.3351 92.3247 24.2556 92.5053 24.1315C92.6858 24.0074 92.8344 23.8422 92.9388 23.6494C93.2193 23.0742 92.9735 22.7033 92.2463 22.3498C92.1667 22.3117 92.087 22.2701 91.997 22.2355L91.6231 22.0726L91.5538 22.0379C91.2456 21.8889 91.1418 21.6914 91.2352 21.4938C91.2803 21.3968 91.4118 21.3171 91.6265 21.227C91.7233 21.3396 91.8409 21.4326 91.9728 21.5008C92.1196 21.5777 92.2807 21.6234 92.446 21.635C92.6113 21.6466 92.7772 21.6238 92.9333 21.5682C93.0894 21.5125 93.2323 21.4252 93.353 21.3116C93.4737 21.198 93.5697 21.0606 93.6348 20.9081C93.7302 20.7334 93.7735 20.5349 93.7595 20.3363L94.452 20.7418L94.6147 20.4333L93.7629 19.9863C93.6143 19.7259 93.4008 19.5086 93.1431 19.3555C93.0005 19.2736 92.8421 19.2227 92.6785 19.2061C92.5149 19.1896 92.3496 19.2077 92.1934 19.2594C92.0372 19.311 91.8937 19.3951 91.7722 19.506C91.6506 19.6169 91.5538 19.7522 91.488 19.9031C91.39 20.0941 91.3456 20.3081 91.3596 20.5224C91.3736 20.7366 91.4455 20.943 91.5677 21.1195V21.1334ZM90.8301 16.6073C90.793 16.6477 90.7659 16.6963 90.7512 16.7492C90.7364 16.802 90.7345 16.8577 90.7454 16.9115C90.7564 16.9653 90.78 17.0157 90.8142 17.0586C90.8485 17.1014 90.8924 17.1356 90.9424 17.1581C90.9924 17.1807 91.047 17.191 91.1018 17.1883C91.1566 17.1856 91.21 17.1699 91.2575 17.1425C91.305 17.1151 91.3454 17.0768 91.3752 17.0308C91.4051 16.9847 91.4235 16.9322 91.4291 16.8776C91.4507 16.837 91.4639 16.7924 91.4681 16.7466C91.4723 16.7008 91.4673 16.6546 91.4534 16.6107C91.4396 16.5668 91.4171 16.5262 91.3874 16.4911C91.3577 16.456 91.3212 16.4271 91.2803 16.4063C91.1957 16.3718 91.101 16.3721 91.0167 16.4072C90.9324 16.4422 90.8654 16.5091 90.8301 16.5934V16.6073ZM88.4721 20.9151C88.7283 21.0225 88.9777 21.1334 89.2097 21.2374C89.4416 21.3413 89.684 21.4522 89.9022 21.5562L89.9506 21.4453C89.5109 21.1889 89.5455 21.0606 89.7533 20.5928L90.5046 18.8599C90.5635 18.7283 90.657 18.5134 90.7851 18.2569L90.7332 18.2015L89.7983 18.1772L89.774 18.2292L89.8502 18.399C89.914 18.5128 89.9461 18.6417 89.9431 18.7722C89.94 18.9027 89.902 19.03 89.8329 19.1407L89.3343 20.2497C89.0815 20.8215 89.0157 20.974 88.5137 20.7868L88.4721 20.9151ZM86.0275 19.8303C86.2665 19.9066 86.5123 19.9897 86.7685 20.0799C87.0248 20.17 87.2914 20.2635 87.5615 20.364L87.603 20.2497C87.0178 19.9897 87.0005 19.8546 87.191 19.2966L87.4714 18.4718C87.693 17.8133 88.0289 17.5534 88.2817 17.6435C88.4387 17.7237 88.5616 17.8578 88.6279 18.0213C88.898 17.945 89.0504 17.8376 89.1092 17.6747C89.1218 17.6342 89.126 17.5916 89.1216 17.5494C89.1171 17.5072 89.1041 17.4664 89.0834 17.4294C89.0626 17.3925 89.0346 17.3601 89.0009 17.3343C88.9673 17.3086 88.9287 17.29 88.8876 17.2796C88.5691 17.1687 88.1466 17.3316 87.6965 17.7717L87.9874 16.9608L87.9562 16.9088L87.0663 17.044L87.0421 17.1202L87.1356 17.2623C87.2568 17.4425 87.2325 17.6089 87.1356 17.9069L86.7166 19.158C86.5539 19.6397 86.4708 19.7957 86.0795 19.7125L86.0275 19.8303ZM83.7942 16.2642L84.3655 14.0947C85.2242 14.3581 85.5913 14.9161 85.4043 15.5676C85.2173 16.2191 84.6945 16.4825 83.7942 16.2642ZM83.3995 17.7544L83.7457 16.4201C83.816 16.4314 83.8855 16.4476 83.9535 16.4687C84.1363 16.4984 84.3107 16.5667 84.4651 16.6693C84.6194 16.7718 84.7501 16.9061 84.8484 17.0633C84.9467 17.2204 85.0104 17.3967 85.0352 17.5804C85.06 17.7642 85.0454 17.9511 84.9922 18.1287C84.9696 18.2607 84.9191 18.3864 84.8441 18.4974C84.7691 18.6084 84.6714 18.7021 84.5573 18.7723C84.4433 18.8425 84.3156 18.8875 84.1829 18.9044C84.0501 18.9213 83.9152 18.9097 83.7873 18.8703C83.1882 18.7144 83.2194 18.399 83.3891 17.7544H83.3995ZM81.6889 18.4683C81.8967 18.5238 82.4161 18.6763 83.2575 18.905C83.3233 18.9223 83.396 18.9501 83.4652 18.9674C84.0193 19.1199 84.4521 19.2204 84.871 19.0783C85.0667 19.0133 85.2427 18.8998 85.3826 18.7483C85.5224 18.5968 85.6216 18.4122 85.6709 18.2119C85.8544 17.5188 85.522 16.9885 84.6806 16.5137V16.4721C85.4597 16.4721 85.8856 16.2191 86.0656 15.6023C86.2803 14.7878 85.7194 14.3061 84.4521 13.9596C84.2339 13.9006 83.7596 13.7932 83.0878 13.613L83.0532 13.7412C83.6938 13.9907 83.7145 14.2195 83.5345 14.9022L82.8143 17.6193C82.6308 18.3124 82.4334 18.4614 81.727 18.3609L81.6889 18.4683ZM77.3607 17.7198C77.61 17.7406 77.8663 17.7683 78.1363 17.796C78.4064 17.8237 78.6869 17.8549 78.9743 17.893V17.7683C78.3441 17.6504 78.2818 17.5222 78.3614 16.9365L78.4514 16.0701C78.5207 15.377 78.7977 15.0478 79.0574 15.0755C79.2243 15.1218 79.3699 15.2247 79.4694 15.3666C79.7153 15.2314 79.8399 15.0928 79.8572 14.9195C79.8632 14.8764 79.8598 14.8326 79.8474 14.7909C79.835 14.7492 79.8138 14.7106 79.7853 14.6778C79.7567 14.6449 79.7215 14.6186 79.682 14.6005C79.6424 14.5825 79.5995 14.5731 79.556 14.573C79.2097 14.5383 78.8462 14.7913 78.5172 15.325L78.6211 14.4655L78.5761 14.4239L77.7416 14.7705V14.8502L77.8663 14.968C78.0255 15.1171 78.0394 15.2938 78.0082 15.5953L77.8801 16.9123C77.8247 17.4182 77.7832 17.6054 77.378 17.6054L77.3607 17.7198ZM73.9813 16.2885C73.9363 17.0336 74.1405 17.4217 74.6253 17.4564C75.0823 17.448 75.522 17.2801 75.8684 16.9816L75.8303 17.5603C76.1765 17.4806 76.5505 17.4113 76.9556 17.3316L76.9348 17.1999C76.8313 17.2216 76.7255 17.2309 76.6197 17.2276C76.4154 17.2276 76.3912 17.1029 76.4155 16.7321V16.5657L76.5366 15.0893C76.5366 14.9819 76.5713 14.67 76.6267 14.164C76.2492 14.1814 75.8441 14.1883 75.3975 14.1987V14.3304H75.4286C75.9757 14.3685 76.0553 14.5418 76.0138 15.1413V15.2141L75.8926 16.8083C75.7922 16.9053 75.6733 16.9811 75.5431 17.0311C75.4128 17.0811 75.2738 17.1044 75.1343 17.0994C74.653 17.0648 74.4868 16.7528 74.5214 16.0909L74.5803 14.8433C74.5803 14.7359 74.608 14.4586 74.6495 14.0254L73.6108 14.0635V14.1917H73.6454C74.1267 14.2264 74.1025 14.3997 74.0609 15.072L73.9813 16.2885ZM69.6808 15.6854C69.6808 16.7251 70.349 17.3975 71.3289 17.3801C71.5499 17.3746 71.7674 17.3243 71.9683 17.232C72.1692 17.1398 72.3493 17.0077 72.4976 16.8437C72.6459 16.6797 72.7594 16.4872 72.8311 16.278C72.9028 16.0688 72.9313 15.8471 72.9148 15.6265C72.8975 14.5868 72.2465 13.9249 71.2701 13.9422C71.0506 13.9469 70.8343 13.996 70.6342 14.0866C70.4341 14.1771 70.2544 14.3073 70.106 14.4692C69.9575 14.6311 69.8433 14.8214 69.7702 15.0286C69.6971 15.2358 69.6667 15.4557 69.6808 15.675V15.6854ZM71.2701 14.0947C71.831 14.0947 72.2881 14.6943 72.3088 15.6369C72.3296 16.5796 71.9176 17.1999 71.3324 17.2103C70.7472 17.2207 70.3179 16.6246 70.2936 15.675C70.2694 14.7255 70.6849 14.0947 71.2701 14.0843V14.0947ZM66.9488 17.6158C67.347 17.5811 67.7348 17.543 68.1226 17.5153C68.5104 17.4876 68.9017 17.4702 69.2791 17.4494V17.3247C68.6385 17.3073 68.3754 17.0682 68.3338 16.4756L68.2715 15.5399C68.2528 15.3833 68.2634 15.2247 68.3026 15.072C68.3511 14.9091 68.4827 14.573 68.6835 14.0531C69.0817 13.0585 69.2618 12.504 69.9162 12.4589H69.9681V12.3272C69.6981 12.355 69.4211 12.3723 69.1441 12.3931C68.867 12.4139 68.5797 12.4347 68.2819 12.4485V12.5768H68.3061C68.6108 12.556 68.7943 12.6877 68.8082 12.9233C68.8324 13.2422 68.5623 13.9214 68.0845 15.0339L67.2708 13.36C67.2007 13.2318 67.1538 13.0922 67.1323 12.9476C67.1323 12.7812 67.2535 12.6738 67.5305 12.6426V12.5109C67.205 12.5421 66.8899 12.5629 66.5887 12.5837C66.2874 12.6045 65.9966 12.6253 65.7196 12.6391V12.7708C66.2216 12.7708 66.4709 13.0516 66.741 13.6165L67.4509 15.0651C67.5801 15.3037 67.6568 15.5672 67.6759 15.8379L67.7244 16.5103C67.7659 17.1271 67.5443 17.4044 66.9453 17.5049L66.9488 17.6158ZM61.8103 18.6555C62.0562 18.5966 62.3089 18.5411 62.5721 18.4857C62.8353 18.4302 63.1157 18.3678 63.3997 18.3158L63.3754 18.1945C62.7383 18.2777 62.6587 18.1703 62.5375 17.595L62.3574 16.7425C62.2154 16.0493 62.3574 15.6612 62.6344 15.6057C62.8064 15.5963 62.976 15.6492 63.1123 15.7547C63.1936 15.69 63.2576 15.6061 63.2987 15.5106C63.3398 15.415 63.3566 15.3108 63.3477 15.2072C63.3387 15.1656 63.3211 15.1265 63.2959 15.0922C63.2708 15.058 63.2387 15.0295 63.2017 15.0085C63.1648 14.9876 63.1238 14.9747 63.0816 14.9707C63.0393 14.9667 62.9966 14.9717 62.9564 14.9854C62.631 15.0547 62.3505 15.4151 62.1878 16.0251L62.025 15.176L61.9731 15.1483L61.2806 15.7305L61.2979 15.8067L61.4502 15.8795C61.6476 15.9696 61.7134 16.1325 61.7757 16.434L62.0562 17.7267C62.16 18.2223 62.1704 18.399 61.7896 18.5307L61.8103 18.6555ZM57.7176 18.0836C57.9807 19.0818 58.7737 19.5808 59.7189 19.3243C59.9313 19.2654 60.1296 19.1641 60.3019 19.0264C60.4741 18.8888 60.6168 18.7177 60.7213 18.5234C60.8258 18.3292 60.8899 18.1158 60.9099 17.8961C60.9298 17.6764 60.9051 17.4549 60.8373 17.245C60.5742 16.2434 59.7986 15.7582 58.8394 16.0147C58.6283 16.0734 58.4311 16.174 58.2596 16.3106C58.0881 16.4471 57.9458 16.6168 57.8411 16.8095C57.7365 17.0022 57.6716 17.214 57.6504 17.4323C57.6291 17.6506 57.652 17.8709 57.7176 18.0802V18.0836ZM58.8637 16.1464C59.4073 16.0008 59.9925 16.4929 60.2487 17.394C60.5049 18.2951 60.2487 19.0055 59.6739 19.158C59.0991 19.3105 58.552 18.8392 58.2889 17.9208C58.0257 17.0024 58.3131 16.2885 58.8637 16.1464ZM54.532 21.1819C54.8783 21.0364 55.2245 20.8873 55.6089 20.7453L56.7584 20.3155L56.7134 20.2011C55.8824 20.4299 55.692 20.2566 55.4011 19.4872L55.0168 18.4787L55.7266 18.2015C56.3048 17.9762 56.6269 18.0767 56.8277 18.607L56.9177 18.5723C56.8381 18.3852 56.7688 18.2015 56.6996 18.0178C56.5507 17.6227 56.4156 17.2346 56.2875 16.8395L56.1906 16.8776C56.3568 17.3871 56.1629 17.6886 55.595 17.9173L54.9025 18.1876L54.12 16.1082L54.7155 15.8795C55.5223 15.5641 55.9032 15.5884 56.2217 16.3508L56.3118 16.3162L55.9828 15.176C55.5015 15.3701 54.9441 15.5953 54.2896 15.8483L52.773 16.4305L52.818 16.5553C53.5105 16.3647 53.6525 16.5865 53.933 17.3281L54.8506 19.7541C55.1276 20.4957 55.1657 20.7556 54.5043 21.078L54.532 21.1819ZM50.834 22.4642V22.4885C51.0521 22.939 51.2876 23.043 51.71 22.835C52.023 22.6715 52.3017 22.4491 52.5306 22.18L52.4545 22.083C52.3465 22.165 52.2305 22.2358 52.1082 22.2944C52.0178 22.3536 51.9139 22.389 51.8062 22.3975C51.6985 22.406 51.5904 22.3872 51.4919 22.3429C51.3014 22.232 51.1456 21.927 50.9309 21.4626L50.3631 20.2705L51.3084 19.8026L51.1456 19.456L50.2073 19.9308L49.9303 19.2828H49.861L49.4663 20.669L49.5182 20.6898L49.9129 20.4957L50.834 22.4642ZM49.9995 23.0048C49.9244 23.2498 49.7617 23.4583 49.5424 23.5905C48.94 23.9371 48.1886 23.6806 47.7384 22.8974C47.3714 22.2563 47.4268 21.6498 47.7869 21.4418C47.9877 21.324 48.2163 21.3899 48.5175 21.4418C48.5984 21.4614 48.6835 21.4541 48.7599 21.4211C48.793 21.3991 48.8215 21.3707 48.8435 21.3376C48.8655 21.3045 48.8806 21.2673 48.8881 21.2282C48.8955 21.1891 48.895 21.1489 48.8867 21.11C48.8784 21.0711 48.8623 21.0343 48.8395 21.0017C48.7322 20.8146 48.4275 20.8007 48.0535 21.0017C47.8424 21.1165 47.6573 21.2739 47.5103 21.4642C47.3632 21.6544 47.2573 21.8731 47.1994 22.1065C47.1414 22.34 47.1326 22.5829 47.1735 22.8199C47.2145 23.0569 47.3043 23.2827 47.4372 23.4831C47.8769 24.2559 48.7634 24.547 49.4074 24.1762C49.5986 24.0553 49.7602 23.8928 49.8801 23.7008C49.9999 23.5088 50.0751 23.2923 50.0999 23.0672L49.9995 23.0048ZM45.8444 23.5975L44.8299 24.3599C44.6325 23.899 44.6914 23.5004 44.9511 23.3202C45.2108 23.14 45.4912 23.2474 45.834 23.5975H45.8444ZM47.271 24.547C47.277 24.7115 47.2426 24.875 47.1708 25.023C47.0989 25.1711 46.9918 25.2992 46.859 25.3961C46.3361 25.7669 45.5813 25.559 45.0896 24.852C45.0151 24.7417 44.9491 24.6258 44.8922 24.5055C45.3677 24.1681 45.9056 23.8042 46.5058 23.4138C46.4294 23.2864 46.3271 23.1766 46.2055 23.0915C46.084 23.0063 45.9458 22.9478 45.8001 22.9197C45.6544 22.8915 45.5044 22.8945 45.3599 22.9283C45.2154 22.962 45.0796 23.0259 44.9615 23.1157C44.314 23.5767 44.2309 24.5852 44.7987 25.4065C45.3666 26.2279 46.2322 26.4116 46.8451 25.9784C47.0525 25.8138 47.2126 25.5973 47.3093 25.3508C47.406 25.1043 47.4358 24.8365 47.3957 24.5748L47.271 24.547ZM43.8084 28.5845C44.0023 28.4216 44.2032 28.2622 44.4178 28.0924C44.6325 27.9226 44.8541 27.7458 45.0896 27.5725L45.0134 27.4755C44.4802 27.8221 44.359 27.7701 43.9989 27.3092L43.4691 26.616C43.0467 26.0685 43.012 25.6422 43.2267 25.4724C43.3783 25.3913 43.553 25.3644 43.7219 25.3961C43.768 25.3025 43.7897 25.1988 43.7848 25.0945C43.78 24.9903 43.7488 24.8889 43.6942 24.8C43.6686 24.7666 43.6361 24.739 43.599 24.7192C43.5618 24.6994 43.5209 24.6878 43.4789 24.6852C43.4369 24.6825 43.3948 24.6889 43.3555 24.704C43.3161 24.719 43.2805 24.7423 43.251 24.7723C42.9878 24.9803 42.9047 25.4273 43.0086 26.0511L42.4961 25.358H42.4372L42.0633 26.1863L42.1118 26.2521H42.2814C42.4961 26.2521 42.6277 26.3665 42.8147 26.5987L43.6215 27.6384C43.9331 28.0369 44.0162 28.1929 43.7323 28.4805L43.8084 28.5845ZM39.4941 25.9922C39.5187 26.0318 39.5516 26.0656 39.5906 26.0912C39.6295 26.1168 39.6736 26.1337 39.7197 26.1406C39.7658 26.1475 39.8128 26.1443 39.8575 26.1313C39.9023 26.1182 39.9437 26.0956 39.9788 26.065C40.0135 26.0338 40.0415 25.996 40.0612 25.9538C40.0809 25.9115 40.0919 25.8657 40.0935 25.8192C40.0952 25.7726 40.0874 25.7261 40.0706 25.6826C40.0539 25.6391 40.0286 25.5994 39.9961 25.5659C39.9689 25.5295 39.9347 25.4989 39.8955 25.4757C39.8564 25.4525 39.8131 25.4372 39.7681 25.4308C39.7231 25.4244 39.6772 25.4269 39.6332 25.4382C39.5892 25.4495 39.5478 25.4693 39.5114 25.4966C39.4772 25.5277 39.4497 25.5654 39.4303 25.6073C39.4109 25.6492 39.4001 25.6946 39.3984 25.7408C39.3968 25.7869 39.4045 25.833 39.4209 25.8762C39.4373 25.9193 39.4622 25.9588 39.4941 25.9922ZM42.2641 30.0297C42.4719 29.8425 42.6762 29.6831 42.8735 29.4994C43.0709 29.3158 43.2683 29.1529 43.4552 29.0142L43.3791 28.9172C42.9601 29.2083 42.8631 29.1182 42.5377 28.7231L41.3465 27.2884L40.931 26.7685L40.8583 26.7893L40.429 27.6315L40.467 27.6765H40.6471C40.7772 27.667 40.9073 27.6946 41.0225 27.7559C41.1377 27.8172 41.2332 27.9098 41.2981 28.0231L42.0668 28.9519C42.4649 29.4301 42.5723 29.5583 42.1845 29.9326L42.2641 30.0297ZM38.4345 32.2303L35.8826 29.7316L35.9207 29.69C37.0737 28.4771 38.4276 28.4597 39.546 29.5549C40.5086 30.4941 40.6125 31.6343 39.9269 32.3482C39.3833 32.9235 39.0509 32.823 38.4345 32.2303ZM38.3618 34.2196C38.9851 33.5785 39.4768 33.0864 39.8057 32.7398C41.0765 31.4055 41.0834 29.9673 40.0031 28.8929C38.9227 27.8186 37.4096 27.8879 36.073 29.288C35.893 29.4786 35.4775 29.9465 34.8161 30.65L34.9096 30.7401C35.4048 30.3381 35.6575 30.3936 36.1111 30.8302L38.1506 32.823C38.6561 33.3186 38.7219 33.5715 38.2752 34.1364L38.3618 34.2196ZM34.7019 35.4049L33.9886 36.4446C33.6423 36.0772 33.5835 35.6786 33.767 35.4049C33.9505 35.1311 34.2794 35.1865 34.7157 35.4049H34.7019ZM36.357 35.8311C36.4153 35.9854 36.4351 36.1517 36.4146 36.3154C36.3941 36.479 36.3339 36.6352 36.2393 36.7703C35.8653 37.2936 35.0828 37.3456 34.3902 36.8362C34.2804 36.7571 34.1794 36.6665 34.089 36.5658C34.4352 36.0911 34.8196 35.5712 35.2628 35.0028C35.1502 34.9058 35.0181 34.8341 34.8755 34.7925C34.7329 34.751 34.583 34.7405 34.4359 34.7619C34.2889 34.7832 34.1482 34.8359 34.0232 34.9163C33.8982 34.9967 33.792 35.1031 33.7116 35.2281C33.2441 35.8797 33.49 36.8604 34.2898 37.4496C35.0897 38.0387 35.9692 37.9278 36.4089 37.3144C36.5521 37.0915 36.634 36.8347 36.6461 36.57C36.6583 36.3052 36.6003 36.042 36.4782 35.8069L36.357 35.8311ZM33.6319 42.5337L33.6666 42.4713L30.8169 39.2309L34.9062 40.3122L34.9477 40.2359C34.4699 39.723 33.9851 39.1963 33.49 38.6383L32.1361 37.1377C31.6029 36.5451 31.4436 36.1708 31.6721 35.7514L31.5613 35.6856C31.4228 35.942 31.2774 36.1985 31.132 36.4515C30.9865 36.7045 30.8411 36.9679 30.6853 37.2243L30.7961 37.2902C31.0315 36.9228 31.2497 36.8154 31.5163 36.9713C32.0533 37.4008 32.5442 37.8852 32.981 38.4165L33.9124 39.4562L30.9969 38.6903C30.8547 38.6558 30.7174 38.6034 30.5883 38.5343C30.3217 38.3784 30.3113 38.1462 30.5191 37.7857L30.4048 37.7199C30.2455 38.0145 30.0793 38.3056 29.9201 38.5863C29.7608 38.867 29.605 39.1616 29.4318 39.4181L29.5426 39.4804L29.5634 39.4493C29.6422 39.2985 29.7735 39.1821 29.9325 39.122C30.0915 39.0619 30.267 39.0624 30.4256 39.1235L32.6486 41.6499L29.9131 40.8944C29.7527 40.8536 29.5971 40.7955 29.4492 40.7211C29.1306 40.534 29.1029 40.3226 29.3072 39.9206L29.1964 39.8547C29.0302 40.1597 28.8674 40.4474 28.7116 40.7177C28.5558 40.988 28.3931 41.241 28.258 41.4905L28.3688 41.5564C28.6147 41.1855 28.9159 41.2098 29.4942 41.3692L33.6319 42.5337Z" fill="#134094"/>
<path d="M114.514 84.0657L115.158 82.5963L111.865 81.113L109.417 77.1483L108.725 78.7113L110.248 81.1061L107.53 81.4284L106.748 83.2097L111.29 82.6102L114.514 84.0657ZM107.243 95.7934L108.06 94.6082L105.574 92.1199L109.729 92.6882L109.791 92.6016L107.814 88.98L110.93 90.4841L111.803 89.2226L104.712 85.9199L104.642 86.0204L107.239 90.7995L101.827 90.0751L101.761 90.1687L107.243 95.7934ZM101.045 101.543L104.178 98.7704L103.14 97.5748L101.173 99.3076L100.21 98.1847L101.869 96.7222L100.868 95.5578L99.2095 97.0203L98.337 95.9979L100.273 94.2928L99.2649 93.118L96.1486 95.8523L101.045 101.543ZM92.8627 105.009L90.7366 101.276L91.0413 101.099C92.2809 100.375 93.389 100.711 94.033 101.844C94.677 102.978 94.407 104.107 93.1674 104.835L92.8627 105.009ZM92.2983 107.209L93.8322 106.312C94.5704 105.943 95.18 105.359 95.5808 104.638C95.871 104.075 96.0099 103.446 95.9838 102.812C95.9577 102.179 95.7675 101.564 95.4319 101.027C94.3169 99.0719 92.3467 98.4793 90.1168 99.7858L88.5795 100.683L92.2983 107.209ZM83.7942 107.819L83.9604 105.296L85.4735 107.296L83.7942 107.819ZM82.0941 110.848L83.628 110.373L83.7284 109.195L86.3149 108.394L87.0386 109.316L88.6418 108.821L83.2159 102.375L83.1155 102.406L82.0941 110.848ZM77.6308 106.513V104.579C76.9222 104.108 76.0579 103.933 75.2222 104.091C74.3865 104.249 73.6455 104.728 73.1572 105.424C72.5676 106.284 72.3059 107.327 72.4196 108.363C72.4508 108.959 72.6094 109.54 72.8848 110.069C73.1602 110.597 73.546 111.061 74.0159 111.427C74.6447 111.901 75.4267 112.126 76.2112 112.058C76.9288 111.997 77.606 111.7 78.1363 111.212L78.0671 109.209C77.5982 109.826 76.9053 110.233 76.1384 110.342C75.0027 110.443 74.144 109.58 74.0228 108.2C73.9016 106.821 74.6184 105.774 75.7541 105.688C76.3981 105.629 77.011 105.906 77.6308 106.513ZM65.0963 109.237L66.3013 107.022L66.8345 109.486L65.0963 109.237ZM62.2916 111.257L63.8809 111.482L64.4627 110.443L67.1427 110.827L67.4128 111.971L69.0679 112.207L66.8345 104.045L66.7341 104.028L62.2916 111.257ZM53.6698 105.979L55.3665 104.125L55.2972 106.648L53.6698 105.979ZM50.4669 107.251L51.9559 107.861L52.7626 107.008L55.273 108.048V109.223L56.7861 109.86L56.5715 101.394L56.4745 101.356L50.4669 107.251ZM42.2053 101.962L43.4795 102.898L45.3112 100.34L47.3887 101.876L45.5536 104.433L46.8209 105.365L51.1941 99.2695L49.9268 98.3372L48.3202 100.576L46.2426 99.0407L47.8458 96.8019L46.5716 95.8627L42.2053 101.962ZM37.2018 94.3379L35.8411 95.8073C36.0688 96.3764 36.3881 96.9044 36.7863 97.3703C36.9915 97.6239 37.2485 97.8306 37.5402 97.9764C37.8318 98.1222 38.1513 98.2037 38.4771 98.2156C38.8029 98.2274 39.1275 98.1692 39.4289 98.0449C39.7304 97.9206 40.0017 97.7331 40.2247 97.4951C41.0903 96.6737 41.0211 95.7865 40.796 94.6532L40.6159 93.7383C40.5721 93.6 40.5654 93.4526 40.5964 93.3109C40.6274 93.1692 40.695 93.0381 40.7925 92.9308C41.0626 92.6778 41.4158 92.7194 41.7274 93.0556C42.0823 93.5602 42.293 94.1521 42.3368 94.7676L43.6111 93.5616C43.4125 93.0088 43.117 92.496 42.7385 92.0471C41.8348 91.0698 40.6055 91.0455 39.7538 91.8495C39.1063 92.4595 38.8916 93.2358 39.082 94.2755L39.1824 94.8092C39.3244 95.6167 39.4664 96.0845 39.0889 96.438C38.7912 96.7222 38.3272 96.6876 37.9359 96.2613C37.5446 95.835 37.3196 95.1523 37.1949 94.3309L37.2018 94.3379ZM31.6756 90.6608L32.5897 91.9847L38.6838 87.6804L37.7697 86.3565L31.6756 90.6608ZM28.9505 82.1527L32.8355 80.4026L32.9775 80.7283C33.5592 82.0557 33.116 83.1335 31.9387 83.6672C30.7615 84.2009 29.6742 83.8058 29.0856 82.4819L28.9505 82.1527ZM26.8488 81.3556L27.5724 82.9949C27.8526 83.7727 28.3606 84.4478 29.0302 84.9322C29.5505 85.2831 30.1549 85.489 30.7811 85.5285C31.4074 85.5681 32.0328 85.44 32.5932 85.1574C34.6257 84.239 35.4117 82.3156 34.366 79.9312L33.6423 78.2885L26.8488 81.3556Z" fill="#134094"/>
<path fill-rule="evenodd" clip-rule="evenodd" d="M70.9169 70.3523L61.3429 61.7159C61.7321 60.07 62.53 58.5489 63.6628 57.2938C64.5364 56.3194 65.5952 55.5289 66.7773 54.9684C67.9594 54.408 69.2412 54.0888 70.5479 54.0294C71.8546 53.97 73.16 54.1717 74.3879 54.6227C75.6159 55.0737 76.7419 55.7649 77.7001 56.6561C79.1518 58.0037 80.1856 59.7409 80.6779 61.6605L70.9169 70.3523Z" fill="#FFCC00"/>
<path fill-rule="evenodd" clip-rule="evenodd" d="M93.8114 50.0957C93.8114 50.6502 93.389 51.6032 92.8765 51.6032C92.3641 51.6032 91.9416 50.6155 91.9416 50.0957C91.9416 49.5758 93.8114 49.5412 93.8114 50.0957ZM93.2886 39.373V49.4511H92.4506V39.8547L83.7388 44.8834V53.4088C75.2382 48.751 66.7341 48.5847 58.2335 53.4088V44.8834L47.2398 38.5378L71 27.6211L94.7498 38.5274L93.2886 39.373ZM58.2474 44.7066C66.9038 39.6156 75.3802 39.9171 83.7526 44.7066V43.5768C75.3802 38.7873 66.8899 38.4858 58.2474 43.5768V44.7066Z" fill="#134094"/>
<path fill-rule="evenodd" clip-rule="evenodd" d="M71 81.0125L71.9522 83.9999L75.0478 83.993L72.5409 85.8332L73.5035 88.8137L71 86.9665L68.4966 88.8137L69.4626 85.8332L66.9523 83.993L70.0478 83.9999L71 81.0125Z" fill="#134094"/>
<path fill-rule="evenodd" clip-rule="evenodd" d="M18.6979 65.6459C24.9963 63.83 31.364 62.0867 37.6589 60.2708C49.3762 62.2427 65.0132 71.2914 70.9896 75.0135C76.9695 71.2914 92.603 62.2427 104.32 60.2708C110.619 62.0867 116.986 63.83 123.281 65.6459C104.583 65.8608 87.9631 69.4581 70.9965 77.4811C52.6311 68.4392 36.1181 65.8469 18.6979 65.6459Z" fill="#134094"/>
<path fill-rule="evenodd" clip-rule="evenodd" d="M20.4292 55.405C26.274 53.2009 32.0426 50.9967 37.8874 48.7926C49.172 52.3518 61.2182 62.0833 71.0035 71.3192C80.7887 62.0867 92.8384 52.3552 104.123 48.7926C109.964 50.9967 115.736 53.2009 121.578 55.405C114.423 56.5002 107.351 58.0878 100.415 60.1564C89.9529 63.2155 80.0305 67.8853 71.0035 73.9981C70.9792 73.9981 70.9688 73.9981 70.9481 73.9704C61.9352 67.8722 52.0308 63.212 41.5889 60.1564C34.6526 58.0901 27.5827 56.5026 20.4292 55.405Z" fill="#134396"/>
<path fill-rule="evenodd" clip-rule="evenodd" d="M71 81.0125L71.9522 83.9999L75.0478 83.993L72.5409 85.8332L73.5035 88.8137L71 86.9665L68.4966 88.8137L69.4626 85.8332L66.9523 83.993L70.0478 83.9999L71 81.0125Z" fill="#134094"/>
</g>
<defs>
<clipPath id="clip0_1_947">
<rect width="142" height="146" fill="white"/>
</clipPath>
</defs>
</svg>
