<svg width="142" height="146" viewBox="0 0 142 146" fill="none" xmlns="http://www.w3.org/2000/svg">
<g clip-path="url(#clip0_1_918)">
<path d="M66.98 136.955C63.5174 129.677 54.0853 126.312 44.0854 122.746C14.6086 112.189 10.4708 99.2833 11.9563 72.494C12.9396 54.7119 14.058 34.5558 4.3386 27.3057L0 24.0653L26.1736 0H115.826L142 24.0653L137.679 27.2814C132.426 31.1907 129.812 39.0472 129.452 51.9844C129.258 59.0508 129.663 65.6321 130.026 71.4405C131.439 94.2893 132.45 110.8 96.9589 123.314C87.146 126.78 77.8801 130.041 75.1135 136.729L71.2805 145.986L66.98 136.955Z" fill="white"/>
<path d="M114.542 3.2959L135.805 22.8455L136.844 23.7986L135.733 24.6372C128.589 29.9431 126.488 40.2014 126.162 51.9083C125.217 86.1175 137.883 105.411 95.8647 120.223C85.4008 123.91 75.4009 127.435 72.0734 135.472L71.0727 137.897L69.9439 135.537C65.9066 127.047 55.6539 123.376 45.1831 119.627C16.8177 109.465 13.8503 97.8452 15.2353 72.6535C16.2983 53.4435 17.4341 32.9443 6.27765 24.6372L5.15924 23.7986L6.19801 22.8455L27.4582 3.2959H114.542Z" fill="white"/>
<path d="M114.542 3.2959L135.805 22.8455L136.844 23.7986L135.733 24.6372C128.589 29.9431 126.488 40.2014 126.162 51.9083C125.217 86.1175 137.883 105.411 95.8647 120.223C85.4008 123.91 75.4009 127.435 72.0734 135.472L71.0727 137.897L69.9439 135.537C65.9066 127.047 55.6539 123.376 45.1831 119.627C16.8177 109.465 13.8503 97.8452 15.2353 72.6535C16.3053 53.4401 17.441 32.9443 6.28458 24.6372L5.15924 23.7986L6.19801 22.8455L27.4582 3.2959H114.542ZM28.6701 5.31983L8.75685 23.6426C19.754 33.1315 18.6217 53.5787 17.5587 72.7783C16.2222 96.9372 18.5975 107.629 45.9518 117.426C56.0936 121.048 65.9966 124.6 70.9481 132.526C75.3351 124.991 85.0096 121.581 95.103 118.026C135.522 103.778 122.921 85.1644 123.842 51.832C124.168 40.0801 126.266 29.652 133.243 23.6322L113.316 5.31983C85.0442 5.62134 56.9558 5.62134 28.6839 5.31983H28.6701Z" fill="#134094"/>
<path d="M113.015 43.2128L112.409 42.0934C112.887 41.9548 113.268 42.0726 113.413 42.3568C113.558 42.641 113.413 42.9183 113.015 43.2128ZM111.889 44.5124C111.726 44.4961 111.57 44.439 111.434 44.3464C111.299 44.2537 111.188 44.1285 111.114 43.9822C110.823 43.4069 111.131 42.6757 111.893 42.284C112.012 42.2216 112.137 42.1717 112.267 42.135C112.534 42.6583 112.811 43.244 113.112 43.9025C113.248 43.8414 113.369 43.7529 113.469 43.6425C113.569 43.5321 113.645 43.4022 113.693 43.261C113.74 43.1198 113.758 42.9702 113.745 42.8218C113.732 42.6734 113.689 42.5292 113.617 42.3984C113.271 41.681 112.284 41.4592 111.401 41.9132C110.518 42.3672 110.221 43.2128 110.56 43.8886C110.688 44.1174 110.876 44.3073 111.104 44.4384C111.331 44.5695 111.589 44.637 111.851 44.6337L111.889 44.5124ZM108.946 39.9829C109.081 40.1977 109.213 40.423 109.351 40.6587C109.49 40.8943 109.639 41.1404 109.781 41.3934L109.885 41.331C109.601 40.7522 109.673 40.6379 110.172 40.3329L110.91 39.8824C111.502 39.5358 111.921 39.5358 112.059 39.7784C112.123 39.9399 112.13 40.1188 112.076 40.2844C112.162 40.3417 112.262 40.3763 112.365 40.3848C112.467 40.3933 112.571 40.3754 112.665 40.3329C112.701 40.31 112.731 40.28 112.754 40.2448C112.778 40.2096 112.794 40.17 112.801 40.1284C112.809 40.0868 112.807 40.0441 112.798 40.003C112.788 39.9619 112.77 39.9232 112.745 39.8893C112.572 39.5947 112.146 39.4457 111.522 39.4907L112.26 39.0541V38.9986L111.495 38.5204L111.429 38.562L111.412 38.7318C111.391 38.9501 111.259 39.0783 111.003 39.2239L109.885 39.917C109.455 40.1769 109.296 40.2636 109.047 39.917L108.946 39.9829ZM107.949 36.2296C107.354 36.6767 107.194 37.0856 107.478 37.4807C107.77 37.8308 108.174 38.0694 108.621 38.1565L108.167 38.503C108.444 38.7144 108.739 38.9674 109.061 39.2308L109.147 39.1269C109.065 39.0603 108.991 38.9847 108.926 38.9016C108.804 38.7352 108.874 38.6451 109.168 38.4268L109.303 38.3263L110.498 37.4703C110.584 37.4079 110.844 37.2312 111.252 36.947C111 36.6663 110.733 36.3544 110.435 36.0147L110.331 36.091L110.352 36.1187C110.671 36.5692 110.591 36.739 110.11 37.096L110.051 37.1376L108.77 38.0664C108.633 38.0485 108.502 38.0038 108.383 37.9348C108.264 37.8658 108.16 37.7739 108.077 37.6644C107.793 37.2693 107.928 36.9366 108.441 36.5415L109.424 35.786C109.511 35.7236 109.732 35.5607 110.089 35.3147L109.396 34.5384L109.293 34.6146L109.31 34.6423C109.594 35.0374 109.448 35.131 108.912 35.533L107.949 36.2296ZM106.218 34.3408L106.194 34.3616C105.809 34.677 105.764 34.93 106.059 35.3008C106.288 35.5673 106.565 35.7883 106.876 35.9523L106.955 35.8518C106.852 35.769 106.758 35.6748 106.675 35.5711C106.597 35.4947 106.54 35.4002 106.508 35.2962C106.476 35.1922 106.47 35.0818 106.491 34.975C106.554 34.7636 106.817 34.5488 107.212 34.223L108.23 33.3947L108.891 34.223L109.182 33.9839L108.51 33.1486L109.071 32.7293L109.054 32.6704L107.634 32.5768V32.6357L107.908 32.9823L106.218 34.3408ZM103.96 30.9341C103.444 31.4678 103.347 31.8976 103.69 32.2441C104.033 32.5436 104.468 32.7151 104.923 32.7293L104.525 33.1313C104.833 33.3011 105.165 33.5021 105.522 33.7101L105.591 33.5957C105.499 33.5429 105.413 33.4802 105.335 33.4086C105.189 33.263 105.245 33.1625 105.505 32.8991L105.619 32.7813L106.658 31.7416C106.734 31.6654 106.955 31.4505 107.326 31.1039C107.031 30.8683 106.716 30.6014 106.374 30.3138L106.28 30.4073L106.304 30.4281C106.692 30.8232 106.651 31.0034 106.218 31.4297L106.169 31.4817L105.044 32.6045C104.905 32.6104 104.766 32.5883 104.636 32.5394C104.506 32.4906 104.387 32.4161 104.286 32.3204C103.939 31.9738 104.026 31.6272 104.473 31.1524L105.324 30.2514C105.401 30.1717 105.595 29.9776 105.906 29.6761L105.106 29.0211L105.016 29.1147L105.041 29.1354C105.387 29.482 105.248 29.5964 104.784 30.0781L103.96 30.9341ZM100.11 28.5082C100.401 28.7542 100.695 29.0038 100.993 29.2671C101.291 29.5305 101.595 29.8078 101.907 30.092L101.987 29.9984C101.394 29.3642 101.46 29.1112 101.987 28.4908L102.679 27.673L103.25 28.1789C103.718 28.5913 103.78 28.924 103.413 29.3538L103.486 29.4162C103.614 29.2567 103.742 29.1112 103.867 28.9622C104.14 28.6433 104.417 28.3418 104.701 28.0403L104.625 27.971C104.255 28.3591 103.901 28.3176 103.444 27.9259L102.887 27.4338L104.317 25.7634L104.798 26.1897C105.449 26.7615 105.608 27.115 105.089 27.7561L105.162 27.822L106.003 26.9902C105.608 26.6552 105.147 26.2567 104.618 25.7946C104.244 25.448 103.842 25.1015 103.399 24.7098L103.313 24.8069C103.801 25.3337 103.659 25.5693 103.164 26.1689L101.495 28.1166C100.979 28.7126 100.771 28.8651 100.172 28.4146L100.11 28.5082ZM97.544 25.4203L97.5267 25.4446C97.2428 25.857 97.267 26.1169 97.6514 26.3872C97.9447 26.5788 98.2712 26.7139 98.614 26.7858L98.6625 26.6679C98.5413 26.6154 98.4254 26.5516 98.3162 26.4773C98.2201 26.4251 98.1383 26.3501 98.0779 26.2588C98.0176 26.1676 97.9805 26.0629 97.9699 25.954C97.9699 25.7322 98.1673 25.4515 98.4582 25.0287L99.213 23.9509L100.068 24.5677L100.283 24.2593L99.4138 23.639L99.8397 23.081L99.8017 23.029L98.4166 23.3444V23.4033L98.7629 23.6563L97.544 25.4203ZM93.5552 23.4795C93.7629 23.6008 93.9707 23.7325 94.1784 23.8642C94.3862 23.9959 94.6043 24.1345 94.819 24.2766L94.8848 24.1727C94.5385 23.9197 94.5559 23.7325 94.8536 23.2473L95.8266 21.667C96.0676 21.6463 96.3091 21.6995 96.5191 21.8195C96.9935 22.121 96.9866 22.5646 96.5815 23.2473L96.1521 23.9717C96.1036 24.0444 96.069 24.1138 96.0344 24.1727C95.8058 24.54 95.6881 24.6163 95.2899 24.4291L95.2276 24.5331C95.4527 24.6683 95.6708 24.8069 95.8786 24.9386C96.0863 25.0703 96.301 25.2054 96.4949 25.3337L96.5572 25.2297C96.211 24.9455 96.2629 24.8207 96.5087 24.4014L97.2013 23.23C97.6202 22.5092 97.6202 22.0448 97.0939 21.7121C96.718 21.5368 96.2978 21.48 95.8889 21.5492L97.2013 19.4941L97.1666 19.4282L96.3045 19.3104L96.2698 19.3658L96.3287 19.5911C96.3444 19.6883 96.3392 19.7877 96.3136 19.8827C96.2879 19.9777 96.2423 20.0661 96.1798 20.1421L94.4485 22.984C94.1542 23.4587 94.0434 23.6043 93.6383 23.3721L93.5552 23.4795ZM91.308 22.5265L91.8066 22.7379L92.0247 22.8488C92.4991 23.081 92.648 23.3721 92.4541 23.7741C92.2602 24.1761 91.6196 24.3598 90.9479 24.0306C90.3765 23.7464 90.1619 23.2543 90.3177 22.925C90.4227 22.7658 90.5738 22.6423 90.7507 22.5711C90.9276 22.4999 91.122 22.4844 91.308 22.5265ZM92.0316 20.0694C92.3017 19.5079 92.6376 19.3 92.9769 19.4698C93.3163 19.6396 93.4028 20.1629 93.1154 20.766C92.828 21.369 92.4852 21.5388 92.1667 21.3794C91.8481 21.22 91.7339 20.6689 92.0316 20.0555V20.0694ZM91.5677 21.1333L91.1868 21.2546C90.9375 21.3309 90.7505 21.3863 90.6778 21.5423C90.5704 21.7641 90.6778 22.0448 91.0033 22.3844C90.335 22.4329 89.9333 22.5993 89.7637 22.9458C89.5663 23.3548 89.7914 23.8712 90.4112 24.1761C90.8726 24.4034 91.3968 24.4693 91.9001 24.3633C92.1173 24.335 92.3247 24.2555 92.5053 24.1314C92.6858 24.0073 92.8344 23.8421 92.9388 23.6494C93.2193 23.0741 92.9735 22.7032 92.2463 22.3497C92.1667 22.3116 92.087 22.27 91.997 22.2354L91.6231 22.0725L91.5538 22.0378C91.2456 21.8888 91.1418 21.6913 91.2352 21.4937C91.2803 21.3967 91.4118 21.317 91.6265 21.2269C91.7233 21.3395 91.8409 21.4325 91.9728 21.5007C92.1196 21.5776 92.2807 21.6233 92.446 21.6349C92.6113 21.6465 92.7772 21.6238 92.9333 21.5681C93.0894 21.5124 93.2323 21.4251 93.353 21.3115C93.4737 21.1979 93.5697 21.0605 93.6348 20.908C93.7302 20.7333 93.7735 20.5348 93.7595 20.3362L94.452 20.7417L94.6147 20.4333L93.7629 19.9862C93.6143 19.7258 93.4008 19.5085 93.1431 19.3554C93.0005 19.2735 92.8421 19.2226 92.6785 19.206C92.5149 19.1895 92.3496 19.2076 92.1934 19.2593C92.0372 19.3109 91.8937 19.395 91.7722 19.5059C91.6506 19.6168 91.5538 19.7521 91.488 19.903C91.39 20.094 91.3456 20.308 91.3596 20.5223C91.3736 20.7365 91.4455 20.9429 91.5677 21.1194V21.1333ZM90.8301 16.6072C90.793 16.6476 90.7659 16.6962 90.7512 16.7491C90.7364 16.802 90.7345 16.8576 90.7454 16.9114C90.7564 16.9652 90.78 17.0156 90.8142 17.0585C90.8485 17.1013 90.8924 17.1355 90.9424 17.158C90.9924 17.1806 91.047 17.191 91.1018 17.1882C91.1566 17.1855 91.21 17.1698 91.2575 17.1424C91.305 17.115 91.3454 17.0767 91.3752 17.0307C91.4051 16.9846 91.4235 16.9321 91.4291 16.8775C91.4507 16.8369 91.4639 16.7923 91.4681 16.7465C91.4723 16.7007 91.4673 16.6545 91.4534 16.6106C91.4396 16.5667 91.4171 16.5261 91.3874 16.491C91.3577 16.4559 91.3212 16.4271 91.2803 16.4062C91.1957 16.3717 91.101 16.372 91.0167 16.4071C90.9324 16.4421 90.8654 16.5091 90.8301 16.5933V16.6072ZM88.4721 20.915C88.7283 21.0224 88.9777 21.1333 89.2097 21.2373C89.4416 21.3412 89.684 21.4521 89.9022 21.5561L89.9506 21.4452C89.5109 21.1888 89.5455 21.0605 89.7533 20.5927L90.5046 18.8599C90.5635 18.7282 90.657 18.5133 90.7851 18.2568L90.7332 18.2014L89.7983 18.1771L89.774 18.2291L89.8502 18.3989C89.914 18.5127 89.9461 18.6416 89.9431 18.7721C89.94 18.9026 89.902 19.0299 89.8329 19.1406L89.3343 20.2496C89.0815 20.8214 89.0157 20.9739 88.5137 20.7867L88.4721 20.915ZM86.0275 19.8302C86.2665 19.9065 86.5123 19.9897 86.7685 20.0798C87.0248 20.1699 87.2914 20.2634 87.5615 20.3639L87.603 20.2496C87.0178 19.9897 87.0005 19.8545 87.191 19.2965L87.4714 18.4717C87.693 17.8132 88.0289 17.5533 88.2817 17.6434C88.4387 17.7236 88.5616 17.8577 88.6279 18.0212C88.898 17.9449 89.0504 17.8375 89.1092 17.6746C89.1218 17.6341 89.126 17.5915 89.1216 17.5493C89.1171 17.5071 89.1041 17.4663 89.0834 17.4293C89.0626 17.3924 89.0346 17.36 89.0009 17.3342C88.9673 17.3085 88.9287 17.2899 88.8876 17.2795C88.5691 17.1686 88.1466 17.3315 87.6965 17.7717L87.9874 16.9607L87.9562 16.9087L87.0663 17.0439L87.0421 17.1201L87.1356 17.2622C87.2568 17.4424 87.2325 17.6088 87.1356 17.9068L86.7166 19.1579C86.5539 19.6396 86.4708 19.7956 86.0795 19.7124L86.0275 19.8302ZM83.7942 16.2641L84.3655 14.0946C85.2242 14.358 85.5913 14.916 85.4043 15.5675C85.2173 16.219 84.6945 16.4824 83.7942 16.2641ZM83.3995 17.7543L83.7457 16.4201C83.816 16.4313 83.8855 16.4475 83.9535 16.4686C84.1363 16.4983 84.3107 16.5667 84.4651 16.6692C84.6194 16.7717 84.7501 16.906 84.8484 17.0632C84.9467 17.2203 85.0104 17.3966 85.0352 17.5804C85.06 17.7641 85.0454 17.951 84.9922 18.1286C84.9696 18.2607 84.9191 18.3864 84.8441 18.4973C84.7691 18.6083 84.6714 18.702 84.5573 18.7722C84.4433 18.8424 84.3156 18.8874 84.1829 18.9043C84.0501 18.9212 83.9152 18.9096 83.7873 18.8703C83.1882 18.7143 83.2194 18.3989 83.3891 17.7543H83.3995ZM81.6889 18.4682C81.8967 18.5237 82.4161 18.6762 83.2575 18.9049C83.3233 18.9222 83.396 18.95 83.4652 18.9673C84.0193 19.1198 84.4521 19.2203 84.871 19.0782C85.0667 19.0133 85.2427 18.8997 85.3826 18.7482C85.5224 18.5967 85.6216 18.4121 85.6709 18.2118C85.8544 17.5187 85.522 16.9884 84.6806 16.5136V16.472C85.4597 16.472 85.8856 16.219 86.0656 15.6022C86.2803 14.7877 85.7194 14.306 84.4521 13.9595C84.2339 13.9005 83.7596 13.7931 83.0878 13.6129L83.0532 13.7411C83.6938 13.9907 83.7145 14.2194 83.5345 14.9021L82.8143 17.6192C82.6308 18.3123 82.4334 18.4613 81.727 18.3608L81.6889 18.4682ZM77.3607 17.7197C77.61 17.7405 77.8663 17.7682 78.1363 17.7959C78.4064 17.8236 78.6869 17.8548 78.9743 17.8929V17.7682C78.3441 17.6504 78.2818 17.5221 78.3614 16.9364L78.4514 16.07C78.5207 15.3769 78.7977 15.0477 79.0574 15.0754C79.2243 15.1218 79.3699 15.2246 79.4694 15.3665C79.7153 15.2313 79.8399 15.0927 79.8572 14.9194C79.8632 14.8763 79.8598 14.8325 79.8474 14.7908C79.835 14.7491 79.8138 14.7105 79.7853 14.6777C79.7567 14.6448 79.7215 14.6185 79.682 14.6004C79.6424 14.5824 79.5995 14.573 79.556 14.5729C79.2097 14.5382 78.8462 14.7912 78.5172 15.3249L78.6211 14.4654L78.5761 14.4239L77.7416 14.7704V14.8501L77.8663 14.968C78.0255 15.117 78.0394 15.2937 78.0082 15.5952L77.8801 16.9122C77.8247 17.4182 77.7832 17.6053 77.378 17.6053L77.3607 17.7197ZM73.9813 16.2884C73.9363 17.0335 74.1405 17.4216 74.6253 17.4563C75.0823 17.4479 75.522 17.28 75.8684 16.9815L75.8303 17.5602C76.1765 17.4805 76.5505 17.4112 76.9556 17.3315L76.9348 17.1998C76.8313 17.2215 76.7255 17.2308 76.6197 17.2275C76.4154 17.2275 76.3912 17.1028 76.4155 16.732V16.5656L76.5366 15.0893C76.5366 14.9818 76.5713 14.6699 76.6267 14.1639C76.2492 14.1813 75.8441 14.1882 75.3975 14.1986V14.3303H75.4286C75.9757 14.3684 76.0553 14.5417 76.0138 15.1412V15.214L75.8926 16.8082C75.7922 16.9052 75.6733 16.981 75.5431 17.031C75.4128 17.081 75.2738 17.1043 75.1343 17.0993C74.653 17.0647 74.4868 16.7528 74.5214 16.0908L74.5803 14.8432C74.5803 14.7358 74.608 14.4585 74.6495 14.0253L73.6108 14.0634V14.1917H73.6454C74.1267 14.2263 74.1025 14.3996 74.0609 15.0719L73.9813 16.2884ZM69.6808 15.6853C69.6808 16.725 70.349 17.3974 71.3289 17.38C71.5499 17.3745 71.7674 17.3242 71.9683 17.232C72.1692 17.1397 72.3493 17.0076 72.4976 16.8436C72.6459 16.6796 72.7594 16.4871 72.8311 16.2779C72.9028 16.0687 72.9313 15.847 72.9148 15.6264C72.8975 14.5867 72.2465 13.9248 71.2701 13.9421C71.0506 13.9468 70.8343 13.9959 70.6342 14.0865C70.4341 14.1771 70.2544 14.3072 70.106 14.4691C69.9575 14.631 69.8433 14.8213 69.7702 15.0285C69.6971 15.2357 69.6667 15.4556 69.6808 15.6749V15.6853ZM71.2701 14.0946C71.831 14.0946 72.2881 14.6942 72.3088 15.6368C72.3296 16.5795 71.9176 17.1998 71.3324 17.2102C70.7472 17.2206 70.3179 16.6245 70.2936 15.6749C70.2694 14.7254 70.6849 14.0946 71.2701 14.0842V14.0946ZM66.9488 17.6157C67.347 17.581 67.7348 17.5429 68.1226 17.5152C68.5104 17.4875 68.9017 17.4701 69.2791 17.4493V17.3246C68.6385 17.3073 68.3754 17.0681 68.3338 16.4755L68.2715 15.5398C68.2528 15.3832 68.2634 15.2246 68.3026 15.0719C68.3511 14.909 68.4827 14.5729 68.6835 14.053C69.0817 13.0584 69.2618 12.5039 69.9162 12.4588H69.9681V12.3271C69.6981 12.3549 69.4211 12.3722 69.1441 12.393C68.867 12.4138 68.5797 12.4346 68.2819 12.4484V12.5767H68.3061C68.6108 12.5559 68.7943 12.6876 68.8082 12.9232C68.8324 13.2421 68.5623 13.9213 68.0845 15.0338L67.2708 13.3599C67.2007 13.2317 67.1538 13.0921 67.1323 12.9475C67.1323 12.7811 67.2535 12.6737 67.5305 12.6425V12.5108C67.205 12.542 66.8899 12.5628 66.5887 12.5836C66.2874 12.6044 65.9966 12.6252 65.7196 12.6391V12.7707C66.2216 12.7707 66.4709 13.0515 66.741 13.6164L67.4509 15.065C67.5801 15.3036 67.6568 15.5671 67.6759 15.8378L67.7244 16.5102C67.7659 17.127 67.5443 17.4043 66.9453 17.5048L66.9488 17.6157ZM61.8103 18.6554C62.0562 18.5965 62.3089 18.541 62.5721 18.4856C62.8353 18.4301 63.1157 18.3677 63.3997 18.3158L63.3754 18.1945C62.7383 18.2776 62.6587 18.1702 62.5375 17.5949L62.3574 16.7424C62.2154 16.0492 62.3574 15.6611 62.6344 15.6056C62.8064 15.5962 62.976 15.6491 63.1123 15.7547C63.1936 15.6899 63.2576 15.606 63.2987 15.5105C63.3398 15.4149 63.3566 15.3107 63.3477 15.2071C63.3387 15.1655 63.3211 15.1264 63.2959 15.0921C63.2708 15.0579 63.2387 15.0294 63.2017 15.0084C63.1648 14.9875 63.1238 14.9746 63.0816 14.9706C63.0393 14.9666 62.9966 14.9716 62.9564 14.9853C62.631 15.0546 62.3505 15.415 62.1878 16.025L62.025 15.1759L61.9731 15.1482L61.2806 15.7304L61.2979 15.8066L61.4502 15.8794C61.6476 15.9695 61.7134 16.1324 61.7757 16.4339L62.0562 17.7266C62.16 18.2222 62.1704 18.3989 61.7896 18.5306L61.8103 18.6554ZM57.7176 18.0836C57.9807 19.0817 58.7737 19.5807 59.7189 19.3243C59.9313 19.2653 60.1296 19.164 60.3019 19.0263C60.4741 18.8887 60.6168 18.7176 60.7213 18.5233C60.8258 18.3291 60.8899 18.1157 60.9099 17.896C60.9298 17.6763 60.9051 17.4548 60.8373 17.2449C60.5742 16.2433 59.7986 15.7581 58.8394 16.0146C58.6283 16.0733 58.4311 16.1739 58.2596 16.3105C58.0881 16.447 57.9458 16.6167 57.8411 16.8094C57.7365 17.0021 57.6716 17.2139 57.6504 17.4322C57.6291 17.6505 57.652 17.8708 57.7176 18.0801V18.0836ZM58.8637 16.1463C59.4073 16.0007 59.9925 16.4928 60.2487 17.3939C60.5049 18.295 60.2487 19.0054 59.6739 19.1579C59.0991 19.3104 58.552 18.8391 58.2889 17.9207C58.0257 17.0023 58.3131 16.2884 58.8637 16.1463ZM54.532 21.1818C54.8783 21.0363 55.2245 20.8873 55.6089 20.7452L56.7584 20.3154L56.7134 20.2011C55.8824 20.4298 55.692 20.2565 55.4011 19.4871L55.0168 18.4786L55.7266 18.2014C56.3048 17.9761 56.6269 18.0766 56.8277 18.6069L56.9177 18.5722C56.8381 18.3851 56.7688 18.2014 56.6996 18.0177C56.5507 17.6226 56.4156 17.2345 56.2875 16.8394L56.1906 16.8775C56.3568 17.387 56.1629 17.6885 55.595 17.9172L54.9025 18.1875L54.12 16.1081L54.7155 15.8794C55.5223 15.564 55.9032 15.5883 56.2217 16.3507L56.3118 16.3161L55.9828 15.1759C55.5015 15.37 54.9441 15.5952 54.2896 15.8482L52.773 16.4305L52.818 16.5552C53.5105 16.3646 53.6525 16.5864 53.933 17.3281L54.8506 19.754C55.1276 20.4956 55.1657 20.7556 54.5043 21.0779L54.532 21.1818ZM50.834 22.4641V22.4884C51.0521 22.9389 51.2876 23.0429 51.71 22.8349C52.023 22.6714 52.3017 22.449 52.5306 22.1799L52.4545 22.0829C52.3465 22.1649 52.2305 22.2357 52.1082 22.2943C52.0178 22.3535 51.9139 22.3889 51.8062 22.3974C51.6985 22.4059 51.5904 22.3871 51.4919 22.3428C51.3014 22.2319 51.1456 21.9269 50.9309 21.4625L50.3631 20.2704L51.3084 19.8025L51.1456 19.4559L50.2073 19.9307L49.9303 19.2827H49.861L49.4663 20.6689L49.5182 20.6897L49.9129 20.4956L50.834 22.4641ZM49.9995 23.0047C49.9244 23.2497 49.7617 23.4582 49.5424 23.5904C48.94 23.937 48.1886 23.6805 47.7384 22.8973C47.3714 22.2562 47.4268 21.6497 47.7869 21.4418C47.9877 21.3239 48.2163 21.3898 48.5175 21.4418C48.5984 21.4613 48.6835 21.454 48.7599 21.421C48.793 21.399 48.8215 21.3706 48.8435 21.3375C48.8655 21.3044 48.8806 21.2672 48.8881 21.2281C48.8955 21.189 48.895 21.1488 48.8867 21.1099C48.8784 21.071 48.8623 21.0342 48.8395 21.0016C48.7322 20.8145 48.4275 20.8006 48.0535 21.0016C47.8424 21.1164 47.6573 21.2739 47.5103 21.4641C47.3632 21.6543 47.2573 21.873 47.1994 22.1065C47.1414 22.3399 47.1326 22.5828 47.1735 22.8198C47.2145 23.0568 47.3043 23.2826 47.4372 23.483C47.8769 24.2558 48.7634 24.547 49.4074 24.1761C49.5986 24.0552 49.7602 23.8927 49.8801 23.7007C49.9999 23.5087 50.0751 23.2922 50.0999 23.0671L49.9995 23.0047ZM45.8444 23.5974L44.8299 24.3598C44.6325 23.8989 44.6914 23.5003 44.9511 23.3201C45.2108 23.1399 45.4912 23.2473 45.834 23.5974H45.8444ZM47.271 24.547C47.277 24.7114 47.2426 24.8749 47.1708 25.0229C47.0989 25.171 46.9918 25.2991 46.859 25.396C46.3361 25.7669 45.5813 25.5589 45.0896 24.8519C45.0151 24.7416 44.9491 24.6257 44.8922 24.5054C45.3677 24.168 45.9056 23.8042 46.5058 23.4137C46.4294 23.2863 46.3271 23.1765 46.2055 23.0914C46.084 23.0062 45.9458 22.9477 45.8001 22.9196C45.6544 22.8914 45.5044 22.8944 45.3599 22.9282C45.2154 22.9619 45.0796 23.0258 44.9615 23.1156C44.314 23.5766 44.2309 24.5851 44.7987 25.4064C45.3666 26.2278 46.2322 26.4115 46.8451 25.9783C47.0525 25.8137 47.2126 25.5972 47.3093 25.3507C47.406 25.1042 47.4358 24.8365 47.3957 24.5747L47.271 24.547ZM43.8084 28.5844C44.0023 28.4215 44.2032 28.2621 44.4178 28.0923C44.6325 27.9225 44.8541 27.7457 45.0896 27.5724L45.0134 27.4754C44.4802 27.822 44.359 27.77 43.9989 27.3091L43.4691 26.6159C43.0467 26.0684 43.012 25.6421 43.2267 25.4723C43.3783 25.3912 43.553 25.3643 43.7219 25.396C43.768 25.3024 43.7897 25.1987 43.7848 25.0944C43.78 24.9902 43.7488 24.8888 43.6942 24.7999C43.6686 24.7665 43.6361 24.7389 43.599 24.7191C43.5618 24.6993 43.5209 24.6877 43.4789 24.6851C43.4369 24.6824 43.3948 24.6889 43.3555 24.7039C43.3161 24.7189 43.2805 24.7422 43.251 24.7722C42.9878 24.9802 42.9047 25.4272 43.0086 26.051L42.4961 25.3579H42.4372L42.0633 26.1862L42.1118 26.252H42.2814C42.4961 26.252 42.6277 26.3664 42.8147 26.5986L43.6215 27.6383C43.9331 28.0368 44.0162 28.1928 43.7323 28.4804L43.8084 28.5844ZM39.4941 25.9921C39.5187 26.0317 39.5516 26.0655 39.5906 26.0911C39.6295 26.1167 39.6736 26.1336 39.7197 26.1405C39.7658 26.1474 39.8128 26.1443 39.8575 26.1312C39.9023 26.1181 39.9437 26.0955 39.9788 26.0649C40.0135 26.0338 40.0415 25.9959 40.0612 25.9537C40.0809 25.9114 40.0919 25.8657 40.0935 25.8191C40.0952 25.7725 40.0874 25.726 40.0706 25.6825C40.0539 25.639 40.0286 25.5993 39.9961 25.5658C39.9689 25.5294 39.9347 25.4988 39.8955 25.4756C39.8564 25.4524 39.8131 25.4371 39.7681 25.4307C39.7231 25.4243 39.6772 25.4268 39.6332 25.4381C39.5892 25.4494 39.5478 25.4692 39.5114 25.4965C39.4772 25.5276 39.4497 25.5653 39.4303 25.6072C39.4109 25.6491 39.4001 25.6945 39.3984 25.7407C39.3968 25.7869 39.4045 25.8329 39.4209 25.8761C39.4373 25.9192 39.4622 25.9587 39.4941 25.9921ZM42.2641 30.0296C42.4719 29.8424 42.6762 29.683 42.8735 29.4993C43.0709 29.3157 43.2683 29.1528 43.4552 29.0142L43.3791 28.9171C42.9601 29.2082 42.8631 29.1181 42.5377 28.723L41.3465 27.2883L40.931 26.7684L40.8583 26.7892L40.429 27.6314L40.467 27.6764H40.6471C40.7772 27.667 40.9073 27.6945 41.0225 27.7558C41.1377 27.8171 41.2332 27.9097 41.2981 28.023L42.0668 28.9518C42.4649 29.43 42.5723 29.5583 42.1845 29.9325L42.2641 30.0296ZM38.4345 32.2303L35.8826 29.7315L35.9207 29.6899C37.0737 28.477 38.4276 28.4596 39.546 29.5548C40.5086 30.494 40.6125 31.6342 39.9269 32.3481C39.3833 32.9234 39.0509 32.8229 38.4345 32.2303ZM38.3618 34.2195C38.9851 33.5784 39.4768 33.0863 39.8057 32.7397C41.0765 31.4054 41.0834 29.9672 40.0031 28.8929C38.9227 27.8185 37.4096 27.8878 36.073 29.2879C35.893 29.4785 35.4775 29.9464 34.8161 30.6499L34.9096 30.74C35.4048 30.338 35.6575 30.3935 36.1111 30.8301L38.1506 32.8229C38.6561 33.3185 38.7219 33.5715 38.2752 34.1363L38.3618 34.2195ZM34.7019 35.4048L33.9886 36.4445C33.6423 36.0771 33.5835 35.6786 33.767 35.4048C33.9505 35.131 34.2794 35.1864 34.7157 35.4048H34.7019ZM36.357 35.831C36.4153 35.9853 36.4351 36.1516 36.4146 36.3153C36.3941 36.479 36.3339 36.6351 36.2393 36.7702C35.8653 37.2935 35.0828 37.3455 34.3902 36.8361C34.2804 36.7571 34.1794 36.6664 34.089 36.5658C34.4352 36.091 34.8196 35.5711 35.2628 35.0028C35.1502 34.9057 35.0181 34.834 34.8755 34.7925C34.7329 34.7509 34.583 34.7404 34.4359 34.7618C34.2889 34.7831 34.1482 34.8358 34.0232 34.9162C33.8982 34.9967 33.792 35.103 33.7116 35.228C33.2441 35.8796 33.49 36.8603 34.2898 37.4495C35.0897 38.0386 35.9692 37.9277 36.4089 37.3143C36.5521 37.0914 36.634 36.8346 36.6461 36.5699C36.6583 36.3051 36.6003 36.0419 36.4782 35.8068L36.357 35.831ZM33.6319 42.5336L33.6666 42.4712L30.8169 39.2308L34.9062 40.3121L34.9477 40.2359C34.4699 39.7229 33.9851 39.1962 33.49 38.6382L32.1361 37.1376C31.6029 36.545 31.4436 36.1707 31.6721 35.7513L31.5613 35.6855C31.4228 35.9419 31.2774 36.1984 31.132 36.4514C30.9865 36.7044 30.8411 36.9678 30.6853 37.2242L30.7961 37.2901C31.0315 36.9227 31.2497 36.8153 31.5163 36.9712C32.0533 37.4008 32.5442 37.8851 32.981 38.4164L33.9124 39.4561L30.9969 38.6902C30.8547 38.6557 30.7174 38.6033 30.5883 38.5342C30.3217 38.3783 30.3113 38.1461 30.5191 37.7857L30.4048 37.7198C30.2455 38.0144 30.0793 38.3055 29.9201 38.5862C29.7608 38.8669 29.605 39.1615 29.4318 39.418L29.5426 39.4803L29.5634 39.4492C29.6422 39.2984 29.7735 39.182 29.9325 39.1219C30.0915 39.0618 30.267 39.0624 30.4256 39.1234L32.6486 41.6498L29.9131 40.8943C29.7527 40.8535 29.5971 40.7954 29.4492 40.721C29.1306 40.5339 29.1029 40.3225 29.3072 39.9205L29.1964 39.8546C29.0302 40.1596 28.8674 40.4473 28.7116 40.7176C28.5558 40.9879 28.3931 41.2409 28.258 41.4904L28.3688 41.5563C28.6147 41.1854 28.9159 41.2097 29.4942 41.3691L33.6319 42.5336Z" fill="#134094"/>
<path d="M114.514 84.0658L115.158 82.5964L111.865 81.1131L109.417 77.1484L108.725 78.7114L110.248 81.1062L107.53 81.4285L106.748 83.2098L111.29 82.6103L114.514 84.0658ZM107.243 95.7935L108.06 94.6083L105.574 92.12L109.729 92.6883L109.791 92.6017L107.814 88.9801L110.93 90.4842L111.803 89.2227L104.712 85.9199L104.642 86.0204L107.239 90.7995L101.827 90.0752L101.761 90.1688L107.243 95.7935ZM101.045 101.543L104.178 98.7705L103.14 97.5748L101.173 99.3077L100.21 98.1848L101.869 96.7223L100.868 95.5579L99.2095 97.0204L98.337 95.998L100.273 94.2929L99.2649 93.1181L96.1486 95.8524L101.045 101.543ZM92.8627 105.009L90.7366 101.276L91.0413 101.099C92.2809 100.375 93.389 100.711 94.033 101.845C94.677 102.978 94.407 104.108 93.1674 104.835L92.8627 105.009ZM92.2983 107.209L93.8322 106.312C94.5704 105.943 95.18 105.36 95.5808 104.638C95.871 104.075 96.0099 103.446 95.9838 102.812C95.9577 102.179 95.7675 101.564 95.4319 101.027C94.3169 99.072 92.3467 98.4794 90.1168 99.7859L88.5795 100.684L92.2983 107.209ZM83.7942 107.819L83.9604 105.296L85.4735 107.296L83.7942 107.819ZM82.0941 110.848L83.628 110.373L83.7284 109.195L86.3149 108.395L87.0386 109.316L88.6418 108.821L83.2159 102.375L83.1155 102.406L82.0941 110.848ZM77.6308 106.513V104.579C76.9222 104.108 76.0579 103.933 75.2222 104.091C74.3865 104.249 73.6455 104.728 73.1572 105.425C72.5676 106.284 72.3059 107.327 72.4196 108.363C72.4508 108.959 72.6094 109.54 72.8848 110.069C73.1602 110.598 73.546 111.061 74.0159 111.427C74.6447 111.901 75.4267 112.126 76.2112 112.058C76.9288 111.997 77.606 111.7 78.1363 111.212L78.0671 109.209C77.5982 109.826 76.9053 110.233 76.1384 110.342C75.0027 110.443 74.144 109.58 74.0228 108.2C73.9016 106.821 74.6184 105.775 75.7541 105.688C76.3981 105.629 77.011 105.906 77.6308 106.513ZM65.0963 109.237L66.3013 107.022L66.8345 109.486L65.0963 109.237ZM62.2916 111.257L63.8809 111.482L64.4627 110.443L67.1427 110.827L67.4128 111.971L69.0679 112.207L66.8345 104.045L66.7341 104.028L62.2916 111.257ZM53.6698 105.979L55.3665 104.125L55.2972 106.648L53.6698 105.979ZM50.4669 107.251L51.9559 107.861L52.7626 107.008L55.273 108.048V109.223L56.7861 109.861L56.5715 101.394L56.4745 101.356L50.4669 107.251ZM42.2053 101.962L43.4795 102.898L45.3112 100.34L47.3887 101.876L45.5536 104.433L46.8209 105.366L51.1941 99.2695L49.9268 98.3373L48.3202 100.576L46.2426 99.0408L47.8458 96.802L46.5716 95.8628L42.2053 101.962ZM37.2018 94.338L35.8411 95.8074C36.0688 96.3765 36.3881 96.9045 36.7863 97.3704C36.9915 97.624 37.2485 97.8307 37.5402 97.9765C37.8318 98.1223 38.1513 98.2038 38.4771 98.2157C38.8029 98.2275 39.1275 98.1693 39.4289 98.045C39.7304 97.9207 40.0017 97.7332 40.2247 97.4951C41.0903 96.6738 41.0211 95.7866 40.796 94.6533L40.6159 93.7384C40.5721 93.6001 40.5654 93.4527 40.5964 93.311C40.6274 93.1693 40.695 93.0382 40.7925 92.9309C41.0626 92.6779 41.4158 92.7195 41.7274 93.0557C42.0823 93.5603 42.293 94.1522 42.3368 94.7677L43.6111 93.5617C43.4125 93.0089 43.117 92.496 42.7385 92.0472C41.8348 91.0699 40.6055 91.0456 39.7538 91.8496C39.1063 92.4596 38.8916 93.2359 39.082 94.2756L39.1824 94.8093C39.3244 95.6168 39.4664 96.0846 39.0889 96.4381C38.7912 96.7223 38.3272 96.6877 37.9359 96.2614C37.5446 95.8351 37.3196 95.1524 37.1949 94.331L37.2018 94.338ZM31.6756 90.6609L32.5897 91.9848L38.6838 87.6805L37.7697 86.3566L31.6756 90.6609ZM28.9505 82.1528L32.8355 80.4027L32.9775 80.7284C33.5592 82.0558 33.116 83.1336 31.9387 83.6673C30.7615 84.201 29.6742 83.8059 29.0856 82.482L28.9505 82.1528ZM26.8488 81.3557L27.5724 82.995C27.8526 83.7728 28.3606 84.4479 29.0302 84.9322C29.5505 85.2832 30.1549 85.489 30.7811 85.5286C31.4074 85.5682 32.0328 85.4401 32.5932 85.1575C34.6257 84.2391 35.4117 82.3157 34.366 79.9313L33.6423 78.2886L26.8488 81.3557Z" fill="#134094"/>
<path fill-rule="evenodd" clip-rule="evenodd" d="M70.9169 70.3525L61.3429 61.7162C61.7321 60.0702 62.53 58.5492 63.6628 57.294C64.5364 56.3197 65.5952 55.5292 66.7773 54.9687C67.9594 54.4083 69.2412 54.089 70.5479 54.0297C71.8546 53.9703 73.16 54.172 74.3879 54.623C75.6159 55.074 76.7419 55.7652 77.7001 56.6564C79.1518 58.004 80.1856 59.7412 80.6779 61.6607L70.9169 70.3525Z" fill="#FFCC00"/>
<path fill-rule="evenodd" clip-rule="evenodd" d="M93.8114 50.0957C93.8114 50.6502 93.389 51.6032 92.8765 51.6032C92.3641 51.6032 91.9416 50.6155 91.9416 50.0957C91.9416 49.5759 93.8114 49.5412 93.8114 50.0957ZM93.2886 39.373V49.4511H92.4506V39.8548L83.7388 44.8834V53.4088C75.2382 48.751 66.7341 48.5847 58.2335 53.4088V44.8834L47.2398 38.5378L71 27.6211L94.7498 38.5274L93.2886 39.373ZM58.2474 44.7066C66.9038 39.6156 75.3802 39.9171 83.7526 44.7066V43.5768C75.3802 38.7873 66.8899 38.4858 58.2474 43.5768V44.7066Z" fill="#134094"/>
<path fill-rule="evenodd" clip-rule="evenodd" d="M71 81.0127L71.9522 84.0001L75.0478 83.9931L72.5409 85.8334L73.5035 88.8138L71 86.9666L68.4966 88.8138L69.4626 85.8334L66.9523 83.9931L70.0478 84.0001L71 81.0127Z" fill="#134094"/>
<path fill-rule="evenodd" clip-rule="evenodd" d="M18.6979 65.6457C24.9963 63.8297 31.364 62.0865 37.6589 60.2705C49.3762 62.2425 65.0132 71.2912 70.9896 75.0133C76.9695 71.2912 92.603 62.2425 104.32 60.2705C110.619 62.0865 116.986 63.8297 123.281 65.6457C104.583 65.8606 87.9631 69.4579 70.9965 77.4808C52.6311 68.439 36.1181 65.8467 18.6979 65.6457Z" fill="#134094"/>
<path fill-rule="evenodd" clip-rule="evenodd" d="M20.4292 55.4054C26.274 53.2012 32.0426 50.9971 37.8874 48.793C49.172 52.3522 61.2182 62.0837 71.0035 71.3196C80.7887 62.0871 92.8384 52.3556 104.123 48.793C109.964 50.9971 115.736 53.2012 121.578 55.4054C114.423 56.5006 107.351 58.0882 100.415 60.1568C89.9529 63.2159 80.0305 67.8857 71.0035 73.9985C70.9792 73.9985 70.9688 73.9985 70.9481 73.9708C61.9352 67.8726 52.0308 63.2124 41.5889 60.1568C34.6526 58.0905 27.5827 56.503 20.4292 55.4054Z" fill="#134396"/>
<path fill-rule="evenodd" clip-rule="evenodd" d="M71 81.0127L71.9522 84.0001L75.0478 83.9931L72.5409 85.8334L73.5035 88.8138L71 86.9666L68.4966 88.8138L69.4626 85.8334L66.9523 83.9931L70.0478 84.0001L71 81.0127Z" fill="#134094"/>
</g>
<defs>
<clipPath id="clip0_1_918">
<rect width="142" height="146" fill="white"/>
</clipPath>
</defs>
</svg>
