<svg width="158" height="241" viewBox="0 0 158 241" fill="none" xmlns="http://www.w3.org/2000/svg">
<g clip-path="url(#clip0_1_546)">
<path d="M153.708 221.348L152.493 220.413C152.602 171.082 152.42 61.3971 152.493 11.1797C152.493 10.4432 152.347 9.71396 152.065 9.03356C151.783 8.35317 151.369 7.73494 150.847 7.21419C150.326 6.69343 149.707 6.28035 149.025 5.99852C148.344 5.71668 147.613 5.57163 146.876 5.57163H11.3065C-1.21579 -1.8572 8.68049 164.6 5.67756 166.141C5.67756 174.638 7.70788 184.725 17.4704 189.302C21.5311 191.013 142.402 239.835 142.402 239.835C153.879 245.516 164.127 229.031 153.708 221.348Z" fill="#B1ACB5"/>
<path d="M146.839 217.5C146.839 217.5 53.7851 192.907 25.2634 186.498C-1.21582 185.721 -6.72856e-05 162.208 -6.72856e-05 162.208V5.60805C-7.42163e-05 4.86954 0.146011 4.13831 0.429801 3.45632C0.713591 2.77433 1.1295 2.15503 1.65364 1.63396C2.17779 1.11288 2.79986 0.700304 3.48413 0.419905C4.1684 0.139507 4.9014 -0.00319022 5.64105 6.77657e-06H141.222C142.712 6.77657e-06 144.141 0.590852 145.194 1.64256C146.247 2.69427 146.839 4.1207 146.839 5.60805V217.5Z" fill="url(#paint0_linear_1_546)"/>
<path style="mix-blend-mode:multiply" opacity="0.3" d="M54.855 90.457C26.3454 69.1051 13.3733 34.4858 10.6865 6.77658e-06H5.64108C4.90143 -0.00319022 4.16843 0.139507 3.48416 0.419905C2.79988 0.700304 2.17782 1.11288 1.65367 1.63396C1.12953 2.15503 0.71362 2.77433 0.42983 3.45632C0.14604 4.13831 -4.52125e-05 4.86954 -3.82818e-05 5.60805V162.196C-3.82818e-05 162.196 -1.2158 185.733 25.2148 186.473C53.7608 192.883 146.791 217.475 146.791 217.475V130.272C114.913 130.442 80.933 108.483 54.855 90.457Z" fill="url(#paint1_linear_1_546)"/>
<path d="M53.2867 141.84C41.3844 132.129 30.4547 143.454 25.2391 152.764L53.7851 172.053C63.5842 149.875 53.2867 141.84 53.2867 141.84Z" fill="url(#paint2_linear_1_546)"/>
<path style="mix-blend-mode:multiply" opacity="0.3" d="M53.2866 141.84C46.7216 136.474 40.4482 137.53 35.2691 141.111C44.0469 144.996 46.2839 156.127 43.3539 165.024L53.7851 172.077C63.5841 149.875 53.2866 141.84 53.2866 141.84Z" fill="url(#paint3_linear_1_546)"/>
<path d="M-2.92962e-05 160.57C-2.92962e-05 173.922 5.60462 181.205 15.975 183.208C40.8981 188.064 66.6114 156.758 53.2624 141.84L148.019 215.776C150.275 217.515 151.77 220.056 152.194 222.87C152.618 225.684 151.936 228.552 150.292 230.876L150.183 231.022C148.653 233.019 146.483 234.431 144.036 235.023C141.589 235.615 139.012 235.351 136.736 234.275C136.736 234.275 15.8656 185.442 11.805 183.742C-1.04558 178.146 -2.92962e-05 160.57 -2.92962e-05 160.57Z" fill="url(#paint4_linear_1_546)"/>
<path d="M73.0427 115.523L74.5867 120.269H79.5835L75.5472 123.207L77.0912 127.953L73.0427 125.016L68.9943 127.953L70.5383 123.207L66.502 120.269H71.4987L73.0427 115.523Z" fill="url(#paint5_linear_1_546)"/>
<path d="M52.0709 117.053L53.238 120.634H57.0069L53.9553 122.843L55.1225 126.412L52.0709 124.202L49.0315 126.412L50.1987 122.843L47.1471 120.634H50.9159L52.0709 117.053Z" fill="url(#paint6_linear_1_546)"/>
<path d="M94.3185 117.053L95.4857 120.634H99.2424L96.203 122.843L97.3579 126.412L94.3185 124.202L91.2791 126.412L92.4341 122.843L89.3947 120.634H93.1514L94.3185 117.053Z" fill="url(#paint7_linear_1_546)"/>
<path d="M34.1003 19.7568C34.1003 18.9941 34.2653 18.3158 34.5953 17.7218C34.9253 17.1205 35.3836 16.6548 35.9703 16.3248C36.5643 15.9875 37.2353 15.8188 37.9833 15.8188C38.9 15.8188 39.6846 16.0608 40.3373 16.5448C40.99 17.0288 41.4263 17.6888 41.6463 18.5248H39.5783C39.4243 18.2021 39.2043 17.9565 38.9183 17.7878C38.6396 17.6191 38.3206 17.5348 37.9613 17.5348C37.382 17.5348 36.9126 17.7365 36.5533 18.1398C36.194 18.5431 36.0143 19.0821 36.0143 19.7568C36.0143 20.4315 36.194 20.9705 36.5533 21.3738C36.9126 21.7771 37.382 21.9788 37.9613 21.9788C38.3206 21.9788 38.6396 21.8945 38.9183 21.7258C39.2043 21.5571 39.4243 21.3115 39.5783 20.9888H41.6463C41.4263 21.8248 40.99 22.4848 40.3373 22.9688C39.6846 23.4455 38.9 23.6838 37.9833 23.6838C37.2353 23.6838 36.5643 23.5188 35.9703 23.1888C35.3836 22.8515 34.9253 22.3858 34.5953 21.7918C34.2653 21.1978 34.1003 20.5195 34.1003 19.7568ZM44.6792 22.1768H47.1432V23.6288H42.7982V15.9068H44.6792V22.1768ZM52.8474 22.2648H49.9654L49.5034 23.6288H47.5344L50.3284 15.9068H52.5064L55.3004 23.6288H53.3094L52.8474 22.2648ZM52.3634 20.8128L51.4064 17.9858L50.4604 20.8128H52.3634ZM58.9448 23.7058C58.3801 23.7058 57.8741 23.6141 57.4268 23.4308C56.9794 23.2475 56.6201 22.9761 56.3488 22.6168C56.0848 22.2575 55.9454 21.8248 55.9308 21.3188H57.9328C57.9621 21.6048 58.0611 21.8248 58.2298 21.9788C58.3984 22.1255 58.6184 22.1988 58.8898 22.1988C59.1684 22.1988 59.3884 22.1365 59.5498 22.0118C59.7111 21.8798 59.7918 21.7001 59.7918 21.4728C59.7918 21.2821 59.7258 21.1245 59.5938 20.9998C59.4691 20.8751 59.3114 20.7725 59.1208 20.6918C58.9374 20.6111 58.6734 20.5195 58.3288 20.4168C57.8301 20.2628 57.4231 20.1088 57.1078 19.9548C56.7924 19.8008 56.5211 19.5735 56.2938 19.2728C56.0664 18.9721 55.9528 18.5798 55.9528 18.0958C55.9528 17.3771 56.2131 16.8161 56.7338 16.4128C57.2544 16.0021 57.9328 15.7968 58.7688 15.7968C59.6194 15.7968 60.3051 16.0021 60.8258 16.4128C61.3464 16.8161 61.6251 17.3808 61.6618 18.1068H59.6268C59.6121 17.8575 59.5204 17.6631 59.3518 17.5238C59.1831 17.3771 58.9668 17.3038 58.7027 17.3038C58.4754 17.3038 58.2921 17.3661 58.1528 17.4908C58.0134 17.6081 57.9438 17.7805 57.9438 18.0078C57.9438 18.2571 58.0611 18.4515 58.2957 18.5908C58.5304 18.7301 58.8971 18.8805 59.3958 19.0418C59.8944 19.2105 60.2978 19.3718 60.6058 19.5258C60.9211 19.6798 61.1924 19.9035 61.4198 20.1968C61.6471 20.4901 61.7608 20.8678 61.7608 21.3298C61.7608 21.7698 61.6471 22.1695 61.4198 22.5288C61.1998 22.8881 60.8771 23.1741 60.4518 23.3868C60.0264 23.5995 59.5241 23.7058 58.9448 23.7058ZM65.7123 23.7058C65.1477 23.7058 64.6417 23.6141 64.1943 23.4308C63.747 23.2475 63.3877 22.9761 63.1163 22.6168C62.8523 22.2575 62.713 21.8248 62.6983 21.3188H64.7003C64.7297 21.6048 64.8287 21.8248 64.9973 21.9788C65.166 22.1255 65.386 22.1988 65.6573 22.1988C65.936 22.1988 66.156 22.1365 66.3173 22.0118C66.4787 21.8798 66.5593 21.7001 66.5593 21.4728C66.5593 21.2821 66.4933 21.1245 66.3613 20.9998C66.2367 20.8751 66.079 20.7725 65.8883 20.6918C65.705 20.6111 65.441 20.5195 65.0963 20.4168C64.5977 20.2628 64.1907 20.1088 63.8753 19.9548C63.56 19.8008 63.2887 19.5735 63.0613 19.2728C62.834 18.9721 62.7203 18.5798 62.7203 18.0958C62.7203 17.3771 62.9807 16.8161 63.5013 16.4128C64.022 16.0021 64.7003 15.7968 65.5363 15.7968C66.387 15.7968 67.0727 16.0021 67.5933 16.4128C68.114 16.8161 68.3927 17.3808 68.4293 18.1068H66.3943C66.3797 17.8575 66.288 17.6631 66.1193 17.5238C65.9507 17.3771 65.7343 17.3038 65.4703 17.3038C65.243 17.3038 65.0597 17.3661 64.9203 17.4908C64.781 17.6081 64.7113 17.7805 64.7113 18.0078C64.7113 18.2571 64.8287 18.4515 65.0633 18.5908C65.298 18.7301 65.6647 18.8805 66.1633 19.0418C66.662 19.2105 67.0653 19.3718 67.3733 19.5258C67.6887 19.6798 67.96 19.9035 68.1873 20.1968C68.4147 20.4901 68.5283 20.8678 68.5283 21.3298C68.5283 21.7698 68.4147 22.1695 68.1873 22.5288C67.9673 22.8881 67.6447 23.1741 67.2193 23.3868C66.794 23.5995 66.2917 23.7058 65.7123 23.7058ZM73.6239 23.6288L72.0179 20.7138H71.5669V23.6288H69.6859V15.9068H72.8429C73.4516 15.9068 73.9686 16.0131 74.3939 16.2258C74.8266 16.4385 75.1492 16.7318 75.3619 17.1058C75.5746 17.4725 75.6809 17.8831 75.6809 18.3378C75.6809 18.8511 75.5342 19.3095 75.2409 19.7128C74.9549 20.1161 74.5296 20.4021 73.9649 20.5708L75.7469 23.6288H73.6239ZM71.5669 19.3828H72.7329C73.0776 19.3828 73.3342 19.2985 73.5029 19.1298C73.6789 18.9611 73.7669 18.7228 73.7669 18.4148C73.7669 18.1215 73.6789 17.8905 73.5029 17.7218C73.3342 17.5531 73.0776 17.4688 72.7329 17.4688H71.5669V19.3828ZM80.5137 23.7058C79.7877 23.7058 79.1204 23.5371 78.5117 23.1998C77.9104 22.8625 77.43 22.3931 77.0707 21.7918C76.7187 21.1831 76.5427 20.5011 76.5427 19.7458C76.5427 18.9905 76.7187 18.3121 77.0707 17.7108C77.43 17.1095 77.9104 16.6401 78.5117 16.3028C79.1204 15.9655 79.7877 15.7968 80.5137 15.7968C81.2397 15.7968 81.9034 15.9655 82.5047 16.3028C83.1134 16.6401 83.59 17.1095 83.9347 17.7108C84.2867 18.3121 84.4627 18.9905 84.4627 19.7458C84.4627 20.5011 84.2867 21.1831 83.9347 21.7918C83.5827 22.3931 83.106 22.8625 82.5047 23.1998C81.9034 23.5371 81.2397 23.7058 80.5137 23.7058ZM80.5137 21.9898C81.1297 21.9898 81.621 21.7845 81.9877 21.3738C82.3617 20.9631 82.5487 20.4205 82.5487 19.7458C82.5487 19.0638 82.3617 18.5211 81.9877 18.1178C81.621 17.7071 81.1297 17.5018 80.5137 17.5018C79.8904 17.5018 79.3917 17.7035 79.0177 18.1068C78.651 18.5101 78.4677 19.0565 78.4677 19.7458C78.4677 20.4278 78.651 20.9741 79.0177 21.3848C79.3917 21.7881 79.8904 21.9898 80.5137 21.9898ZM89.1611 23.7058C88.4351 23.7058 87.7678 23.5371 87.1591 23.1998C86.5578 22.8625 86.0775 22.3931 85.7181 21.7918C85.3661 21.1831 85.1901 20.5011 85.1901 19.7458C85.1901 18.9905 85.3661 18.3121 85.7181 17.7108C86.0775 17.1095 86.5578 16.6401 87.1591 16.3028C87.7678 15.9655 88.4351 15.7968 89.1611 15.7968C89.8871 15.7968 90.5508 15.9655 91.1521 16.3028C91.7608 16.6401 92.2375 17.1095 92.5821 17.7108C92.9341 18.3121 93.1101 18.9905 93.1101 19.7458C93.1101 20.5011 92.9341 21.1831 92.5821 21.7918C92.2301 22.3931 91.7535 22.8625 91.1521 23.1998C90.5508 23.5371 89.8871 23.7058 89.1611 23.7058ZM89.1611 21.9898C89.7771 21.9898 90.2685 21.7845 90.6351 21.3738C91.0091 20.9631 91.1961 20.4205 91.1961 19.7458C91.1961 19.0638 91.0091 18.5211 90.6351 18.1178C90.2685 17.7071 89.7771 17.5018 89.1611 17.5018C88.5378 17.5018 88.0391 17.7035 87.6651 18.1068C87.2985 18.5101 87.1151 19.0565 87.1151 19.7458C87.1151 20.4278 87.2985 20.9741 87.6651 21.3848C88.0391 21.7881 88.5378 21.9898 89.1611 21.9898ZM102.902 15.9068V23.6288H101.021V18.9978L99.2936 23.6288H97.7756L96.0376 18.9868V23.6288H94.1566V15.9068H96.3786L98.5456 21.2528L100.691 15.9068H102.902Z" fill="white"/>
<path d="M48.4377 34.4158C48.4377 34.8631 48.3351 35.2738 48.1297 35.6478C47.9244 36.0144 47.6091 36.3114 47.1837 36.5388C46.7584 36.7661 46.2304 36.8798 45.5997 36.8798H44.4337V39.6518H42.5527V31.9298H45.5997C46.2157 31.9298 46.7364 32.0361 47.1617 32.2488C47.5871 32.4614 47.9061 32.7548 48.1187 33.1288C48.3314 33.5028 48.4377 33.9318 48.4377 34.4158ZM45.4567 35.3838C45.8161 35.3838 46.0837 35.2994 46.2597 35.1308C46.4357 34.9621 46.5237 34.7238 46.5237 34.4158C46.5237 34.1078 46.4357 33.8694 46.2597 33.7008C46.0837 33.5321 45.8161 33.4478 45.4567 33.4478H44.4337V35.3838H45.4567ZM53.355 39.6518L51.749 36.7368H51.298V39.6518H49.417V31.9298H52.574C53.1827 31.9298 53.6997 32.0361 54.125 32.2488C54.5577 32.4614 54.8803 32.7548 55.093 33.1288C55.3057 33.4954 55.412 33.9061 55.412 34.3608C55.412 34.8741 55.2653 35.3324 54.972 35.7358C54.686 36.1391 54.2607 36.4251 53.696 36.5938L55.478 39.6518H53.355ZM51.298 35.4058H52.464C52.8087 35.4058 53.0653 35.3214 53.234 35.1528C53.41 34.9841 53.498 34.7458 53.498 34.4378C53.498 34.1444 53.41 33.9134 53.234 33.7448C53.0653 33.5761 52.8087 33.4918 52.464 33.4918H51.298V35.4058ZM60.2448 39.7288C59.5188 39.7288 58.8514 39.5601 58.2428 39.2228C57.6414 38.8854 57.1611 38.4161 56.8018 37.8148C56.4498 37.2061 56.2738 36.5241 56.2738 35.7688C56.2738 35.0134 56.4498 34.3351 56.8018 33.7338C57.1611 33.1324 57.6414 32.6631 58.2428 32.3258C58.8514 31.9884 59.5188 31.8198 60.2448 31.8198C60.9708 31.8198 61.6344 31.9884 62.2358 32.3258C62.8444 32.6631 63.3211 33.1324 63.6658 33.7338C64.0178 34.3351 64.1938 35.0134 64.1938 35.7688C64.1938 36.5241 64.0178 37.2061 63.6658 37.8148C63.3138 38.4161 62.8371 38.8854 62.2358 39.2228C61.6344 39.5601 60.9708 39.7288 60.2448 39.7288ZM60.2448 38.0128C60.8608 38.0128 61.3521 37.8074 61.7188 37.3968C62.0928 36.9861 62.2798 36.4434 62.2798 35.7688C62.2798 35.0868 62.0928 34.5441 61.7188 34.1408C61.3521 33.7301 60.8608 33.5248 60.2448 33.5248C59.6214 33.5248 59.1228 33.7264 58.7488 34.1298C58.3821 34.5331 58.1988 35.0794 58.1988 35.7688C58.1988 36.4508 58.3821 36.9971 58.7488 37.4078C59.1228 37.8111 59.6214 38.0128 60.2448 38.0128ZM70.3662 34.3718C70.2269 34.1151 70.0252 33.9208 69.7612 33.7888C69.5046 33.6494 69.2002 33.5798 68.8482 33.5798C68.2396 33.5798 67.7519 33.7814 67.3852 34.1848C67.0186 34.5808 66.8352 35.1124 66.8352 35.7798C66.8352 36.4911 67.0259 37.0484 67.4072 37.4518C67.7959 37.8478 68.3276 38.0458 69.0022 38.0458C69.4642 38.0458 69.8529 37.9284 70.1682 37.6938C70.4909 37.4591 70.7256 37.1218 70.8722 36.6818H68.4852V35.2958H72.5772V37.0448C72.4379 37.5141 72.1996 37.9504 71.8622 38.3538C71.5322 38.7571 71.1106 39.0834 70.5972 39.3328C70.0839 39.5821 69.5046 39.7068 68.8592 39.7068C68.0966 39.7068 67.4146 39.5418 66.8132 39.2118C66.2192 38.8744 65.7536 38.4088 65.4162 37.8148C65.0862 37.2208 64.9212 36.5424 64.9212 35.7798C64.9212 35.0171 65.0862 34.3388 65.4162 33.7448C65.7536 33.1434 66.2192 32.6778 66.8132 32.3478C67.4072 32.0104 68.0856 31.8418 68.8482 31.8418C69.7722 31.8418 70.5496 32.0654 71.1802 32.5128C71.8182 32.9601 72.2399 33.5798 72.4452 34.3718H70.3662ZM77.5571 39.6518L75.9511 36.7368H75.5001V39.6518H73.6191V31.9298H76.7761C77.3848 31.9298 77.9018 32.0361 78.3271 32.2488C78.7598 32.4614 79.0825 32.7548 79.2951 33.1288C79.5078 33.4954 79.6141 33.9061 79.6141 34.3608C79.6141 34.8741 79.4675 35.3324 79.1741 35.7358C78.8881 36.1391 78.4628 36.4251 77.8981 36.5938L79.6801 39.6518H77.5571ZM75.5001 35.4058H76.6661C77.0108 35.4058 77.2675 35.3214 77.4361 35.1528C77.6121 34.9841 77.7001 34.7458 77.7001 34.4378C77.7001 34.1444 77.6121 33.9134 77.4361 33.7448C77.2675 33.5761 77.0108 33.4918 76.6661 33.4918H75.5001V35.4058ZM85.6019 38.2878H82.7199L82.2579 39.6518H80.2889L83.0829 31.9298H85.2609L88.0549 39.6518H86.0639L85.6019 38.2878ZM85.1179 36.8358L84.1609 34.0088L83.2149 36.8358H85.1179ZM97.6503 31.9298V39.6518H95.7693V35.0208L94.0423 39.6518H92.5243L90.7863 35.0098V39.6518H88.9053V31.9298H91.1273L93.2943 37.2758L95.4393 31.9298H97.6503Z" fill="white"/>
<path d="M29.693 59.2506V76.955H25.3804V59.2506H29.693ZM37.1309 59.2506V76.955H32.8183V59.2506H37.1309ZM52.9923 59.2506V62.7057H48.3014V76.955H43.9888V62.7057H39.2979V59.2506H52.9923ZM66.0013 66.3122V69.8934H54.9045V66.3122H66.0013ZM80.8831 59.2506V71.3058C80.8831 73.172 80.3534 74.6096 79.2942 75.6184C78.2518 76.6272 76.8395 77.1316 75.0573 77.1316C73.191 77.1316 71.6946 76.602 70.5681 75.5427C69.4416 74.4835 68.8783 72.9787 68.8783 71.0283H73.1657C73.1657 71.7681 73.3171 72.3314 73.6197 72.7181C73.9223 73.088 74.3595 73.2729 74.9311 73.2729C75.4524 73.2729 75.8559 73.1048 76.1417 72.7685C76.4275 72.4322 76.5705 71.9447 76.5705 71.3058V59.2506H80.8831ZM88.6792 62.7057V66.287H94.4546V69.616H88.6792V73.4999H95.2112V76.955H84.3666V59.2506H95.2112V62.7057H88.6792ZM102.324 62.7057V66.287H108.099V69.616H102.324V73.4999H108.856V76.955H98.011V59.2506H108.856V62.7057H102.324Z" fill="white"/>
<path d="M59.2177 103.309H55.5634L49.4516 94.0559V103.309H45.7974V88.3073H49.4516L55.5634 97.6033V88.3073H59.2177V103.309ZM65.5209 91.235V94.2696H70.4146V97.0904H65.5209V100.381H71.0557V103.309H61.8666V88.3073H71.0557V91.235H65.5209ZM77.0824 91.235V94.2696H81.9761V97.0904H77.0824V100.381H82.6172V103.309H73.4281V88.3073H82.6172V91.235H77.0824ZM95.7814 88.3073V91.235H91.8066V103.309H88.1524V91.235H84.1775V88.3073H95.7814Z" fill="white"/>
<path d="M25.3485 48.1417H127.594" stroke="white" stroke-width="1.07" stroke-miterlimit="10"/>
</g>
<defs>
<linearGradient id="paint0_linear_1_546" x1="69.8696" y1="0.0485611" x2="78.7291" y2="210.448" gradientUnits="userSpaceOnUse">
<stop stop-color="#951F69"/>
<stop offset="1" stop-color="#DF2952"/>
</linearGradient>
<linearGradient id="paint1_linear_1_546" x1="67.2436" y1="0.157809" x2="76.1031" y2="210.57" gradientUnits="userSpaceOnUse">
<stop stop-color="#951F69"/>
<stop offset="1" stop-color="#DF2952"/>
</linearGradient>
<linearGradient id="paint2_linear_1_546" x1="49.9312" y1="140.941" x2="38.2045" y2="165.221" gradientUnits="userSpaceOnUse">
<stop stop-color="#622399"/>
<stop offset="1" stop-color="#951F69"/>
</linearGradient>
<linearGradient id="paint3_linear_1_546" x1="51.7062" y1="141.803" x2="39.9674" y2="166.071" gradientUnits="userSpaceOnUse">
<stop stop-color="#622399"/>
<stop offset="1" stop-color="#951F69"/>
</linearGradient>
<linearGradient id="paint4_linear_1_546" x1="91.2062" y1="162.852" x2="67.4376" y2="212.018" gradientUnits="userSpaceOnUse">
<stop stop-color="#FF790B"/>
<stop offset="0.54" stop-color="#FFD741"/>
<stop offset="1" stop-color="#FF790B"/>
</linearGradient>
<linearGradient id="paint5_linear_1_546" x1="66.502" y1="121.738" x2="79.5835" y2="121.738" gradientUnits="userSpaceOnUse">
<stop stop-color="#FF790B"/>
<stop offset="0.54" stop-color="#FFD741"/>
<stop offset="1" stop-color="#FF790B"/>
</linearGradient>
<linearGradient id="paint6_linear_1_546" x1="47.1471" y1="121.738" x2="57.0069" y2="121.738" gradientUnits="userSpaceOnUse">
<stop stop-color="#FF790B"/>
<stop offset="0.54" stop-color="#FFD741"/>
<stop offset="1" stop-color="#FF790B"/>
</linearGradient>
<linearGradient id="paint7_linear_1_546" x1="89.3947" y1="121.738" x2="99.2424" y2="121.738" gradientUnits="userSpaceOnUse">
<stop stop-color="#FF790B"/>
<stop offset="0.54" stop-color="#FFD741"/>
<stop offset="1" stop-color="#FF790B"/>
</linearGradient>
<clipPath id="clip0_1_546">
<rect width="158" height="241" fill="white"/>
</clipPath>
</defs>
</svg>
