<svg width="423" height="115" viewBox="0 0 423 115" fill="none" xmlns="http://www.w3.org/2000/svg">
<g clip-path="url(#clip0_1_619)">
<path d="M343.387 93.118C356.668 136.848 389.688 99.1527 423 112.829L409.583 69.8513C403.379 62.6713 392.885 64.2099 381.416 67.3554C381.709 66.0493 381.813 64.7078 381.724 63.3722C381.496 60.8204 380.764 58.3392 379.57 56.0725C336.499 -2.88913 357.744 -3.76098 295.172 18.2407C240.342 39.4559 133.109 25.0788 100.55 5.62433C97.1602 4.30054 93.4266 4.14139 89.9366 5.17192C86.4466 6.20244 83.398 8.36417 81.2706 11.3171L56.8638 47.3368C53.6847 52.4654 47.1728 60.0728 49.0871 66.74C37.6699 63.8851 27.2098 62.7055 21.0569 69.8L7.63995 112.829C41.0198 99.1527 73.9554 136.848 87.1672 93.1522C92.0212 82.7241 96.4821 71.2019 98.6185 65.5091C101.028 66.3639 103.524 67.2187 106.122 68.0734C169.583 91.135 282.439 86.2799 331.885 65.5091C334.089 71.1848 338.533 82.6899 343.387 93.118ZM379.434 55.7477C379.177 55.4229 378.681 54.7904 377.947 54.0382C378.503 54.5522 379.002 55.1255 379.434 55.7477ZM52.8301 54.0382C52.3056 54.5822 51.8093 55.1528 51.3432 55.7477C51.7626 55.1249 52.2374 54.5413 52.7618 54.004L52.8301 54.0382Z" fill="#B1ACB5"/>
<path d="M43.4297 51.5594C34.1832 69.7659 55.4964 79.476 79.5785 88.6903L96.3111 47.8668C61.205 26.1045 43.4297 51.5594 43.4297 51.5594Z" fill="url(#paint0_linear_1_619)"/>
<path style="mix-blend-mode:multiply" opacity="0.6" d="M43.4298 51.5594C42.2269 53.8224 41.4943 56.3054 41.2762 58.8591C43.4298 48.1061 75.9209 61.6285 88.5174 66.9109L96.3112 47.8668C61.205 26.1045 43.4298 51.5594 43.4298 51.5594Z" fill="url(#paint1_linear_1_619)"/>
<path d="M92.2946 57.4401C79.5101 88.6903 30.2009 45.8495 13.3485 65.3382L0 108.316C16.8352 98.315 57.7867 116.214 67.1871 108.846C76.5875 101.478 92.2946 57.4401 92.2946 57.4401Z" fill="url(#paint2_linear_1_619)"/>
<path d="M371.93 51.5594C381.143 69.7659 359.864 79.476 335.764 88.6903L319.032 47.8668C354.155 26.1045 371.93 51.5594 371.93 51.5594Z" fill="url(#paint3_linear_1_619)"/>
<path style="mix-blend-mode:multiply" opacity="0.6" d="M371.93 51.5594C373.136 53.82 373.863 56.3049 374.067 58.8591C371.93 48.1061 339.422 61.6285 326.826 66.9109L319.032 47.8668C354.155 26.1045 371.93 51.5594 371.93 51.5594Z" fill="url(#paint4_linear_1_619)"/>
<path d="M323.031 57.4401C336.705 90.5366 385.142 45.8495 401.977 65.3382L415.326 108.316C398.474 98.315 357.522 116.214 348.139 108.846C338.756 101.478 323.031 57.4401 323.031 57.4401Z" fill="url(#paint5_linear_1_619)"/>
<path d="M366.136 42.875L341.729 6.83809C339.607 3.87923 336.56 1.71065 333.07 0.673834C329.579 -0.362981 325.843 -0.209127 322.45 1.11117C301.479 9.24853 267.637 24.6172 207.68 24.6172C147.723 24.6172 113.881 9.24853 92.9099 1.11117C89.5166 -0.209127 85.7806 -0.362981 82.2902 0.673834C78.7998 1.71065 75.7534 3.87923 73.6306 6.83809L49.2238 42.875L43.4297 51.5594C47.3266 45.7128 54.0607 45.5247 63.7517 49.7302C88.8763 61.2182 130.409 79.0999 207.697 79.0999C284.985 79.0999 326.45 61.2182 351.608 49.7302C361.316 45.5247 368.033 45.7128 371.947 51.5594L366.136 42.875Z" fill="url(#paint6_linear_1_619)"/>
<path style="mix-blend-mode:multiply" opacity="0.2" d="M366.136 42.875L341.729 6.83809C339.607 3.87923 336.56 1.71065 333.07 0.673834C329.579 -0.362981 325.843 -0.209127 322.45 1.11117C309.461 6.23976 291.531 13.9668 265.518 19.1809C245.008 34.3273 178.624 76.9972 98.5502 63.6286C123.76 71.8686 158.473 79.117 207.68 79.117C284.968 79.117 326.501 61.2353 351.608 49.7473C361.316 45.5418 368.033 45.7299 371.947 51.5765L366.136 42.875Z" fill="url(#paint7_linear_1_619)"/>
<path d="M104.259 29.3184L103.455 31.5579L96.3624 29.062L94.6533 34.0196L100.191 35.9001L99.3877 38.1567L93.8329 36.2762L91.2521 43.6272L88.4832 42.7382L94.3969 25.9335L104.259 29.3184Z" fill="white"/>
<path d="M110.48 49.7301L108.532 41.7466L106.378 41.1312L104.395 47.9693L101.592 47.1488L106.549 30.0535L112.446 31.763C113.61 32.0862 114.686 32.6709 115.59 33.4725C116.321 34.1153 116.844 34.96 117.095 35.9001C117.352 36.8111 117.352 37.7755 117.095 38.6866C116.786 39.7763 116.14 40.74 115.249 41.4389C114.232 42.1952 112.972 42.5484 111.711 42.4305L113.898 50.7559L110.48 49.7301ZM107.062 38.8917L110.172 39.7807C110.596 39.9386 111.047 40.0108 111.499 39.9932C111.951 39.9756 112.394 39.8685 112.805 39.6781C113.158 39.4802 113.467 39.2109 113.712 38.8871C113.956 38.5634 114.13 38.1924 114.223 37.7976C114.355 37.4212 114.406 37.0213 114.374 36.6238C114.341 36.2263 114.226 35.84 114.035 35.4898C113.517 34.7523 112.744 34.2343 111.865 34.0367L108.754 33.1477L107.062 38.8917Z" fill="white"/>
<path d="M124.136 37.2677L122.957 42.3963L128.956 43.781L128.426 46.1573L122.427 44.7725L121.197 50.1063L128.033 51.6619L127.486 53.9869L117.898 51.7645L121.914 34.3786L131.503 36.601L130.973 38.9259L124.136 37.2677Z" fill="white"/>
<path d="M137.075 40.0371L136.135 45.1657L142.185 46.2769L141.758 48.619L135.707 47.5249L134.716 52.8928L141.553 54.1579L141.125 56.4999L131.434 54.7904L134.665 37.2335L144.356 38.943L143.911 41.2851L137.075 40.0371Z" fill="white"/>
<path d="M161.14 59.2181L157.892 51.662L155.67 51.4055L154.85 58.483L151.944 58.124L154.012 40.4304L160.114 41.1484C161.326 41.2376 162.499 41.6189 163.532 42.2596C164.349 42.7915 164.992 43.5527 165.378 44.4478C165.753 45.3076 165.895 46.251 165.789 47.183C165.666 48.3148 165.18 49.3765 164.404 50.2089C163.531 51.1243 162.35 51.6845 161.088 51.7816L164.609 59.6284L161.14 59.2181ZM156.012 49.0806L159.225 49.4567C160.111 49.6226 161.026 49.4321 161.772 48.9267C162.087 48.6731 162.345 48.3566 162.53 47.9975C162.716 47.6384 162.824 47.2445 162.849 46.8411C162.923 46.4465 162.911 46.0406 162.813 45.6511C162.716 45.2616 162.536 44.8978 162.285 44.5845C161.663 43.9319 160.81 43.5509 159.909 43.5246L156.713 43.1485L156.012 49.0806Z" fill="white"/>
<path d="M172.625 44.7725L172.232 49.9011L178.368 50.3627L178.18 52.7389L172.044 52.2774L171.634 57.7137L178.471 58.2436L178.282 60.637L168.472 59.8677L169.839 42.0715L179.65 42.8408L179.462 45.3025L172.625 44.7725Z" fill="white"/>
<path d="M195.63 48.7899C195.241 47.9236 194.597 47.1962 193.785 46.7043C192.928 46.2043 191.956 45.9335 190.964 45.9179C189.863 45.8557 188.764 46.092 187.785 46.6017C186.844 47.0928 186.066 47.8471 185.546 48.7728C184.95 49.8133 184.637 50.9924 184.641 52.1919C184.571 53.3678 184.794 54.5426 185.29 55.6109C185.74 56.5842 186.465 57.4043 187.375 57.9701C188.315 58.5401 189.387 58.8526 190.486 58.8761C191.9 58.9858 193.304 58.5586 194.417 57.6795C195.466 56.7689 196.157 55.5144 196.365 54.1407L189.717 53.8159V51.491L199.527 51.85V54.1407C199.284 55.5149 198.72 56.8126 197.883 57.9292C197.046 59.0457 195.958 59.9498 194.707 60.5686C193.38 61.2159 191.91 61.5159 190.435 61.4404C188.827 61.4097 187.258 60.9493 185.888 60.107C184.54 59.2743 183.442 58.093 182.709 56.6879C181.966 55.2228 181.608 53.5928 181.668 51.9511C181.728 50.3094 182.204 48.7098 183.051 47.3026C183.894 45.9759 185.073 44.8964 186.469 44.1742C187.987 43.4287 189.673 43.0918 191.36 43.1967C193.047 43.3016 194.678 43.8448 196.092 44.7725C197.532 45.7585 198.612 47.1867 199.168 48.8412L195.63 48.7899Z" fill="white"/>
<path d="M205.099 43.781L204.894 61.543H201.971L202.125 43.7126L205.099 43.781Z" fill="white"/>
<path d="M211.406 61.1498C210.51 60.7911 209.726 60.2012 209.133 59.4403C208.57 58.6592 208.271 57.7191 208.278 56.7563H211.406C211.458 57.4829 211.796 58.1591 212.346 58.6368C212.981 59.1636 213.797 59.4213 214.619 59.3548C215.468 59.3985 216.303 59.1242 216.961 58.5855C217.234 58.3531 217.449 58.0611 217.592 57.7322C217.734 57.4032 217.799 57.0459 217.781 56.6879C217.791 56.4216 217.747 56.1561 217.653 55.9066C217.559 55.6572 217.417 55.4289 217.234 55.2348C216.864 54.8563 216.415 54.5644 215.918 54.3801C215.206 54.1317 214.482 53.9206 213.748 53.7475C212.776 53.5208 211.822 53.2237 210.893 52.8586C210.154 52.54 209.508 52.0402 209.013 51.4055C208.46 50.6353 208.178 49.7035 208.21 48.7557C208.178 47.802 208.434 46.8608 208.945 46.0547C209.461 45.2583 210.197 44.6288 211.064 44.2426C212.074 43.8106 213.162 43.5896 214.26 43.5929C215.784 43.4963 217.294 43.9313 218.533 44.8238C219.082 45.2401 219.535 45.7705 219.859 46.3784C220.184 46.9863 220.373 47.6574 220.413 48.3454H217.183C217.154 48.0107 217.056 47.6857 216.894 47.3913C216.732 47.0969 216.51 46.8396 216.243 46.6359C215.592 46.1701 214.804 45.9355 214.004 45.9692C213.261 45.9475 212.534 46.1898 211.953 46.653C211.686 46.8765 211.477 47.161 211.343 47.4823C211.209 47.8036 211.155 48.1524 211.184 48.4993C211.184 48.997 211.366 49.4775 211.697 49.8498C212.059 50.21 212.497 50.4846 212.978 50.6533C213.508 50.8584 214.209 51.0636 215.098 51.3029C216.08 51.5451 217.045 51.8536 217.986 52.2261C218.743 52.5466 219.407 53.0521 219.918 53.6963C220.484 54.4801 220.773 55.4307 220.738 56.3973C220.743 57.3054 220.501 58.1977 220.037 58.9787C219.525 59.8105 218.799 60.4895 217.935 60.9447C216.92 61.463 215.793 61.727 214.653 61.7139C213.543 61.7544 212.437 61.5623 211.406 61.1498Z" fill="white"/>
<path d="M234.89 43.0117L234.992 45.388L230.258 45.6102L230.976 60.996L228.07 61.1327L227.335 45.747L222.584 45.9692L222.464 43.593L234.89 43.0117Z" fill="white"/>
<path d="M248.341 59.8335L243.641 52.9954L241.419 53.1834L242.034 60.2951L239.111 60.5344L237.573 42.8408L243.709 42.3108C244.9 42.1751 246.106 42.3215 247.23 42.7382C248.152 43.0651 248.956 43.6604 249.537 44.4477C250.088 45.2213 250.414 46.1327 250.477 47.0804C250.581 48.2135 250.323 49.3502 249.742 50.3285C249.056 51.3865 248.013 52.163 246.803 52.5167L251.811 59.4916L248.341 59.8335ZM241.231 50.9439L244.444 50.6704C245.348 50.6531 246.209 50.2781 246.837 49.6276C247.098 49.3185 247.291 48.9576 247.403 48.5687C247.515 48.1798 247.543 47.7717 247.486 47.371C247.475 46.9718 247.38 46.5794 247.206 46.2199C247.032 45.8603 246.784 45.5418 246.478 45.2854C245.744 44.7666 244.835 44.5577 243.948 44.7042L240.718 44.9777L241.231 50.9439Z" fill="white"/>
<path d="M265.928 54.0895L258.545 55.0639L257.741 58.842L254.716 59.2523L258.715 40.721L262.134 40.2765L270.799 57.1153L267.757 57.5256L265.928 54.0895ZM264.817 51.8329L260.852 44.0033L259.04 52.5509L264.817 51.8329Z" fill="white"/>
<path d="M282.114 36.9258L282.541 39.2849L277.875 40.1397L280.661 55.3203L277.79 55.8503L275.004 40.6697L270.321 41.5244L269.893 39.1824L282.114 36.9258Z" fill="white"/>
<path d="M287.652 35.6779L291.48 53.0809L288.626 53.7134L284.797 36.3104L287.652 35.6779Z" fill="white"/>
<path d="M298.932 50.3114C297.408 49.9303 296.014 49.1448 294.898 48.0377C293.722 46.8788 292.888 45.4177 292.489 43.8152C292.054 42.2261 292.054 40.5493 292.489 38.9601C292.901 37.4479 293.71 36.073 294.83 34.9769C295.983 33.8616 297.4 33.0559 298.947 32.6345C300.495 32.2131 302.124 32.1897 303.684 32.5665C305.188 32.938 306.561 33.7191 307.649 34.8231C308.818 35.9851 309.645 37.4457 310.042 39.0456C310.476 40.6348 310.476 42.3115 310.042 43.9007C309.673 45.4029 308.898 46.7748 307.803 47.8668C306.645 48.9865 305.222 49.7926 303.666 50.2088C302.124 50.6527 300.492 50.6881 298.932 50.3114ZM305.769 46.1744C306.524 45.4096 307.041 44.4413 307.256 43.3878C307.468 42.2063 307.415 40.9925 307.102 39.8337C306.789 38.675 306.222 37.6001 305.444 36.6865C304.725 35.8895 303.785 35.3242 302.744 35.0624C301.667 34.8185 300.547 34.847 299.484 35.1455C298.422 35.4441 297.451 36.0031 296.659 36.7719C295.907 37.5391 295.39 38.5063 295.172 39.5585C294.935 40.7331 294.988 41.9476 295.326 43.0972C295.633 44.2685 296.219 45.3479 297.035 46.2427C297.748 47.0649 298.687 47.6593 299.735 47.9523C300.804 48.2421 301.931 48.2421 303 47.9523C304.089 47.629 305.066 47.0072 305.82 46.1573L305.769 46.1744Z" fill="white"/>
<path d="M329.731 41.6441L326.979 42.6185L314.263 32.9768L318.69 45.5418L315.921 46.4992L309.99 29.6774L312.742 28.703L325.458 38.3105L321.049 25.7797L323.8 24.8052L329.731 41.6441Z" fill="white"/>
</g>
<defs>
<linearGradient id="paint0_linear_1_619" x1="56.0262" y1="46.8411" x2="90.2497" y2="75.3488" gradientUnits="userSpaceOnUse">
<stop stop-color="#622399"/>
<stop offset="1" stop-color="#951F69"/>
</linearGradient>
<linearGradient id="paint1_linear_1_619" x1="57.3423" y1="43.8323" x2="86.8647" y2="68.4262" gradientUnits="userSpaceOnUse">
<stop stop-color="#622399"/>
<stop offset="1" stop-color="#951F69"/>
</linearGradient>
<linearGradient id="paint2_linear_1_619" x1="86.8424" y1="89.6818" x2="4.98978" y2="75.9943" gradientUnits="userSpaceOnUse">
<stop stop-color="#FF790B"/>
<stop offset="0.54" stop-color="#FFD741"/>
<stop offset="1" stop-color="#FF790B"/>
</linearGradient>
<linearGradient id="paint3_linear_1_619" x1="359.317" y1="46.8411" x2="325.11" y2="75.3488" gradientUnits="userSpaceOnUse">
<stop stop-color="#622399"/>
<stop offset="1" stop-color="#951F69"/>
</linearGradient>
<linearGradient id="paint4_linear_1_619" x1="358.018" y1="43.8323" x2="328.495" y2="68.4262" gradientUnits="userSpaceOnUse">
<stop stop-color="#622399"/>
<stop offset="1" stop-color="#951F69"/>
</linearGradient>
<linearGradient id="paint5_linear_1_619" x1="328.501" y1="89.6818" x2="410.353" y2="75.9943" gradientUnits="userSpaceOnUse">
<stop stop-color="#FF790B"/>
<stop offset="0.54" stop-color="#FFD741"/>
<stop offset="1" stop-color="#FF790B"/>
</linearGradient>
<linearGradient id="paint6_linear_1_619" x1="392.953" y1="-28.7201" x2="13.9819" y2="96.5225" gradientUnits="userSpaceOnUse">
<stop stop-color="#951F69"/>
<stop offset="1" stop-color="#DF2952"/>
</linearGradient>
<linearGradient id="paint7_linear_1_619" x1="396.457" y1="4.2909" x2="76.4884" y2="110.035" gradientUnits="userSpaceOnUse">
<stop stop-color="#951F69"/>
<stop offset="1" stop-color="#DF2952"/>
</linearGradient>
<clipPath id="clip0_1_619">
<rect width="423" height="115" fill="white"/>
</clipPath>
</defs>
</svg>
